<svg width="674" height="632" viewBox="0 0 674 632" fill="none" xmlns="http://www.w3.org/2000/svg">
<ellipse cx="337" cy="584" rx="337" ry="47.8391" fill="#E4E0F1"/>
<ellipse cx="189.5" cy="154.5" rx="28.5" ry="56.5" fill="url(#paint0_linear_108:77)"/>
<path d="M253.806 587.609C250.483 585.468 246.567 582.732 236.836 580.829C228.885 579.402 224.138 566.914 224.138 566.914H205.626C205.626 566.914 203.964 587.609 204.795 589.274C205.626 590.939 206.1 592.723 210.373 594.031C214.645 595.34 252.145 594.864 253.806 594.507C255.467 594.15 260.096 591.653 253.806 587.609Z" fill="black"/>
<ellipse cx="196.5" cy="245" rx="31.5" ry="16" fill="black"/>
<path d="M38.5378 388.628C36.0457 392.315 25.128 428.234 25.0093 430.018C24.8907 431.802 25.84 436.916 31.5362 432.159C34.6216 429.542 38.4191 426.688 43.0473 417.886C46.8447 410.75 60.1358 409.918 60.1358 409.918L65.832 392.315C65.832 392.315 46.6074 384.465 44.7086 384.703C42.8099 384.941 41.0299 384.941 38.5378 388.628Z" fill="black"/>
<path d="M160.909 323.352C160.434 323.471 159.839 326.921 159.72 327.397C156.985 336.201 131.182 414.725 131.182 418.056C131.182 421.387 75.8892 396.403 66.9709 392.477C66.2575 392.12 65.544 392.477 65.1873 393.071C63.4037 396.879 58.2906 408.181 60.0742 409.49C62.3335 411.037 120.48 452.559 125.237 453.749C129.993 454.938 137.128 460.887 149.018 446.61C159.245 434.356 187.783 387.955 195.75 374.987C196.107 374.392 196.939 374.154 197.534 374.511C197.89 374.749 198.128 375.106 198.247 375.582C199.674 388.074 200.268 436.497 204.43 449.466C208.592 462.434 202.647 476.354 202.647 495.39L206.095 565.466C206.095 566.18 206.69 566.775 207.403 566.775L223.456 567.132C224.169 567.132 224.764 566.656 224.883 565.942C225.953 554.64 236.536 469.929 237.606 456.723C238.795 442.446 245.692 322.638 243.789 315.381C242.362 310.86 169.709 321.924 160.909 323.352Z" fill="black"/>
<path d="M232.49 37.2732C231.896 35.4843 230.111 24.7509 234.275 18.6687C234.275 18.6687 247.123 8.05462 248.789 3.76128C250.097 0.1835 254.261 -1.84391 256.641 2.33017C259.02 6.50425 249.146 17.8339 247.48 22.3657C246.053 26.6591 244.982 31.0717 244.506 35.6035C244.506 36.7961 233.085 39.062 232.49 37.2732Z" fill="black"/>
<path d="M217.915 151.27C217.915 151.27 233.488 123.298 235.033 116.275C236.579 109.253 232.656 37.479 232.656 37.479L244.662 35.6936C244.662 35.6936 256.193 102.23 257.738 109.967C259.284 117.704 253.697 134.368 248.347 143.771C242.998 153.174 228.257 192.572 228.257 197.214C228.257 201.856 229.208 246.016 231.586 254.586C233.963 263.156 243.623 315.294 243.623 315.294C243.623 315.294 239.104 314.743 229.247 315.294C222.891 315.648 214.195 316.76 203.468 317.772C191.871 318.867 160.38 324.217 160.38 324.217C160.38 324.217 164.065 301.007 163.827 293.27C163.595 286.62 165.451 284.745 167.5 281C167.584 280.845 168.914 278.151 169 278C172.169 272.456 174.81 268.021 175.5 265.5C176.664 261.25 175.5 253 175.5 253C175.5 253 188.449 252.266 196.042 248.515C206.384 243.397 208.762 239.231 209.356 236.374C209.713 234.708 207.098 230.899 191.05 236.851C185.7 238.874 174.883 238.755 174.645 245.659C174.526 251.491 179 262.5 172 274C165 285.5 162.638 294.222 153.01 298.031C144.688 301.245 134.822 292.437 135.059 280.891C135.297 267.084 136.129 240.659 142.43 229.114C148.73 217.568 165.967 187.93 169.058 185.55C172.148 183.169 181.54 194.477 192.476 192.929C203.413 191.382 207.93 186.264 210.307 180.908C212.685 175.551 217.915 151.27 217.915 151.27Z" fill="url(#paint1_linear_108:77)"/>
<path d="M183.978 98.9031C188.875 106.761 195.205 113.547 202.61 119.143C215.271 128.906 202.73 156.051 202.133 169.624C201.655 180.458 208.105 195.46 223.751 205.58C234.978 212.961 227.095 229.63 227.095 237.964C227.095 246.298 245.25 226.177 245.967 216.652C246.803 204.865 243.817 196.531 235.456 187.007C227.693 178.077 218.615 144.622 216.107 128.787C215.868 127.12 215.749 125.572 215.868 123.905C216.107 118.31 215.39 100.57 199.385 90.569C180.275 78.6631 168.331 89.6165 160.568 96.1647C151.132 104.142 147.31 126.406 149.699 160.933C152.087 195.46 146.115 215.104 142.054 225.105C132.738 247.846 158.059 231.892 162.717 218.795C168.689 202.008 172.87 200.698 181.35 187.602C184.694 182.482 180.275 165.1 176.572 157.837C169.526 143.788 165.465 137.954 165.465 128.43C165.465 118.905 176.811 102.475 183.978 98.9031Z" fill="#151515"/>
<path opacity="0.07" d="M186.613 161.388C186.613 161.388 199.813 162.216 203.434 153.705C203.784 152.76 201.331 179.709 200.631 176.163C199.696 172.499 186.613 161.388 186.613 161.388Z" fill="black"/>
<path opacity="0.07" d="M165.417 220.146C165.417 220.146 162.264 239.461 160.566 248.284C159.596 253.053 154.5 264 154.5 269C154.5 274 164.456 256.529 167.5 251C169.43 247.494 173.541 246.221 175 244C177.304 240.423 169.54 240.892 168.934 227.776C168.328 214.661 168.449 206.196 168.449 206.196L165.417 220.146Z" fill="black"/>
<path opacity="0.07" d="M164.257 286.148C164.257 286.148 174.408 276.229 174.88 271.034C175.47 264.185 180.31 264.539 180.31 268.79C180.31 273.041 172.755 304.805 177.359 313.189C181.962 321.572 185.621 321.454 185.621 321.454L160.834 323.225L164.257 286.148Z" fill="black"/>
<path opacity="0.07" d="M185.539 322.234C185.539 322.234 186.969 347.692 177.914 356.138C159.448 373.387 170.289 395.99 162.069 405.863C155.159 414.072 153.372 437.745 136.812 442.979C130.259 445.12 106.67 430.726 101.904 429.061C91.7776 425.611 84.6293 406.22 53.0578 396.228C45.6713 393.848 72.4773 396.346 72.4773 396.346L130.616 420.377L160.639 324.137L185.539 322.234Z" fill="black"/>
<path d="M483.065 359.215C483.065 359.215 478.305 376.304 479.615 381.946C480.792 387.054 483.279 389.728 484.83 390.29C486.381 390.851 504.058 390.29 504.058 390.29" fill="url(#paint2_linear_108:77)"/>
<path d="M504.086 390.317C504.086 390.317 508.231 386.385 508.873 382.08C509.514 377.667 510.103 366.756 506.145 360.017C503.818 356.06 482.638 359.563 482.638 359.563" fill="url(#paint3_linear_108:77)"/>
<path d="M491.276 377.828C491.276 377.828 493.201 378.791 493.442 377.694C493.683 376.598 491.516 368.923 492.239 368.334C492.961 367.746 493.549 365.927 496.437 367.372C499.325 368.816 502.802 376.731 502.802 379.967C502.802 383.203 502.935 386.439 501.251 388.846C499.566 391.253 487.692 389.086 487.692 389.086C487.692 389.086 484.804 386.68 485.179 381.893C485.553 377.106 486.623 375.047 487.104 374.458C487.585 373.87 488.414 373.255 489.27 374.325C490.126 375.394 491.276 377.828 491.276 377.828Z" fill="black"/>
<path d="M475.096 346.379C475.096 346.379 473.171 337.58 475.31 332.874C477.45 328.167 478.92 321.936 479.295 319.289C479.669 316.641 480.258 305.703 481.942 303.564C483.627 301.425 485.365 294.926 492.078 294.552L492.185 293.028C492.185 293.028 486.489 292.787 481.595 299.205C476.701 305.623 477.771 316.989 477.476 318.994C477.182 321 474.08 330.28 473.251 332.045C472.422 333.81 471.406 340.763 472.449 345.336C473.492 349.909 474.294 348.144 474.294 348.144L475.096 346.379Z" fill="black"/>
<path d="M475.096 346.379C475.096 346.379 473.171 337.58 475.31 332.874C477.45 328.167 478.92 321.936 479.295 319.289C479.669 316.641 480.258 305.703 481.942 303.564C483.627 301.425 485.365 294.926 492.078 294.552L492.185 293.028C492.185 293.028 486.489 292.787 481.595 299.205C476.701 305.623 477.771 316.989 477.476 318.994C477.182 321 474.08 330.28 473.251 332.045C472.422 333.81 471.406 340.763 472.449 345.336C473.492 349.909 474.294 348.144 474.294 348.144L475.096 346.379" stroke="black" stroke-width="0.837185"/>
<path d="M512.643 346.379C512.643 346.379 514.97 337.58 512.376 332.874C509.782 328.167 507.99 321.936 507.535 319.289C507.081 316.641 506.385 305.703 504.326 303.564C502.267 301.425 500.235 294.926 492.105 294.552L492.185 293.001C492.185 293.001 498.898 292.787 504.808 299.205C510.718 305.623 509.461 316.989 509.808 318.994C510.156 321 513.927 330.28 514.916 332.072C515.906 333.863 517.163 340.79 515.906 345.363C514.649 349.935 513.659 348.17 513.659 348.17L512.643 346.379Z" fill="black"/>
<path d="M512.643 346.379C512.643 346.379 514.97 337.58 512.376 332.874C509.782 328.167 507.99 321.936 507.535 319.289C507.081 316.641 506.385 305.703 504.326 303.564C502.267 301.425 500.235 294.926 492.105 294.552L492.185 293.001C492.185 293.001 498.898 292.787 504.808 299.205C510.718 305.623 509.461 316.989 509.808 318.994C510.156 321 513.927 330.28 514.916 332.072C515.906 333.863 517.163 340.79 515.906 345.363C514.649 349.935 513.659 348.17 513.659 348.17L512.643 346.379" stroke="black" stroke-width="0.837185"/>
<path d="M493.656 390.076L493.629 423.504H473.037C473.037 423.504 472.262 421.15 474.802 420.241C477.343 419.332 476.862 416.872 476.915 415.775C476.942 415.053 477.156 411.55 475.337 410.935C473.519 410.32 470.791 410.641 468.705 408.608C466.272 406.228 465.871 400.398 466.031 397.751C466.298 393.098 467.341 380.475 467.93 376.491C468.465 372.854 470.818 357.37 471.139 356.059C471.567 354.321 473.278 346.298 477.29 344.48C481.301 342.661 482.076 343.25 482.879 343.17C483.681 343.089 483.868 341.645 483.868 340.736C483.868 339.827 484.563 339.131 485.687 339.131C486.542 339.131 487.238 338.463 487.291 337.634C487.291 337.126 486.195 333.114 487.692 332.446C489.858 331.67 492.185 331.51 494.431 332.018L494.672 358.814C494.672 358.814 492.64 358.52 487.799 359.402C484.858 359.937 482.852 360.392 481.649 359.67C480.231 358.787 481.515 357.129 481.996 356.568C482.585 355.872 482.718 354.401 482.611 353.385C482.504 352.369 482.932 351.112 481.863 350.791C480.927 350.497 480.365 351.139 479.67 352.556C478.867 354.214 477.985 361.943 477.049 366.382C476.14 370.607 474.161 384.968 473.251 392.937C472.476 399.837 472.984 402.725 475.926 404.089C477.664 404.891 479.777 404.891 480.98 404.089C482.183 403.287 481.649 399.355 483.44 398.232C485.232 397.109 483.36 395.157 482.852 394.649C482.344 394.141 479.991 389.969 483.226 389.862C486.382 389.701 493.656 390.076 493.656 390.076Z" fill="black" stroke="black" stroke-width="0.837185"/>
<path d="M493.656 390.103L493.549 423.557L515.05 423.504C515.05 423.504 515.772 421.151 513.392 420.241C511.012 419.332 511.44 416.872 511.387 415.775C511.36 415.053 511.173 411.55 512.884 410.935C514.596 410.32 517.19 410.641 519.169 408.608C521.468 406.228 521.87 400.398 521.709 397.751C521.442 393.098 520.452 380.475 519.917 376.491C519.409 372.854 517.19 357.37 516.869 356.059C516.468 354.321 514.863 346.298 511.039 344.48C507.215 342.662 506.519 343.277 505.744 343.17C504.968 343.063 504.808 341.645 504.808 340.736C504.808 339.827 504.139 339.132 503.096 339.132C502.053 339.132 501.572 338.115 501.572 337.634C501.572 337.153 502.588 333.114 501.198 332.446C499.005 331.67 496.651 331.537 494.378 332.018L494.619 358.814C494.619 358.814 496.544 358.52 501.117 359.402C503.899 359.937 505.797 360.392 506.947 359.67C508.311 358.787 507.081 357.129 506.626 356.568C506.092 355.872 505.931 354.401 506.038 353.385C506.145 352.369 505.744 351.112 506.76 350.791C507.643 350.497 508.177 351.139 508.819 352.556C509.568 354.214 510.424 361.943 511.306 366.382C512.162 370.607 514.034 384.968 514.89 392.937C515.639 399.837 515.157 402.725 512.349 404.089C510.691 404.891 508.712 404.891 507.562 404.089C506.412 403.287 506.947 399.355 505.209 398.232C503.471 397.109 505.289 395.157 505.744 394.649C506.198 394.141 508.445 389.969 505.396 389.862C502.428 389.701 493.656 390.103 493.656 390.103Z" fill="black" stroke="black" stroke-width="0.837185"/>
<path d="M469.554 574.458C469.332 569.186 468.665 563.805 467.552 558.643L446.423 559.082C446.423 559.082 445.755 570.504 436.191 572.371L432.188 573.579C427.184 574.567 421.178 576.325 417.731 578.631C417.62 577.752 417.62 576.984 417.62 576.215C417.286 570.504 416.174 564.903 414.395 559.412L390.707 560.29C390.707 560.29 391.93 571.273 382.366 573.14L378.252 574.238C369.244 575.995 357.344 580.059 362.349 586.209C366.241 590.822 406.61 592.908 413.838 591.59C416.619 591.151 417.62 589.174 417.953 586.648C426.516 590.382 460.324 591.261 466.885 589.833C472.112 588.625 469.777 580.498 469.554 574.458Z" fill="#151515"/>
<path d="M370.362 407.503C369.363 415.711 375.689 458.413 375.689 466.509C375.689 474.606 390.892 561.673 390.892 561.673L414.974 560.564C414.974 560.564 410.202 432.459 410.646 426.248C411.09 420.037 437.502 345.613 437.502 345.613C437.502 345.613 439.389 365.245 439.389 371.567C439.389 377.889 446.713 559.012 446.713 559.012H467.688L497.541 292.153L496.986 287.051L386.786 271.745C386.897 271.634 371.361 399.407 370.362 407.503Z" fill="url(#paint4_linear_108:77)"/>
<path fill-rule="evenodd" clip-rule="evenodd" d="M424.106 24.0643C427.544 23.51 430.983 23.51 434.422 23.8426L435.198 36.8133C441.299 38.9197 447.289 40.4717 447.289 40.4717C449.423 42.3119 452.41 44.2468 455.35 46.1514C460.202 49.2952 464.928 52.3565 465.48 54.7728C466.368 58.6529 468.253 58.542 468.919 57.9877C470.214 56.6931 470.753 55.8899 470.889 55.9531C470.986 55.9982 470.878 56.4833 470.694 57.5443C470.25 60.0941 469.363 64.5285 467.699 66.8566C465.369 71.2911 463.484 75.9472 462.153 80.7142C461.265 84.1509 461.598 87.8093 463.262 91.0243C464.88 94.4501 480.639 122.953 496.926 152.413C499.613 157.273 502.314 162.16 504.969 166.964L399.592 148.118L372.748 133.484L349.122 125.945L264.154 56.214L248.736 37.4785C245.186 33.3766 245.186 19.9625 248.181 15.4172C249.189 13.9059 250.158 12.335 251.104 10.7994C255.157 4.22411 258.813 -1.70594 263.489 0.450965C266.816 2.00302 275.69 39.8066 275.69 39.8066L279.684 44.7953L359.105 112.864L388.278 128.828C388.278 128.828 428.765 98.8954 430.872 97.5651C432.98 96.2347 435.642 82.1554 431.427 79.4948C421.887 73.3974 414.234 64.7503 414.234 57.1009C414.234 51.0035 414.788 41.4695 417.672 35.483C419.891 30.8268 423.108 24.286 424.106 24.0643ZM508.186 172.507L507.298 167.297L505.08 166.853L508.186 172.507ZM508.186 172.507C522.606 198.559 534.918 220.731 534.918 220.731L526.821 269.732L515.839 300.44C515.65 300.838 515.435 301.3 515.203 301.798C514.077 304.214 512.563 307.465 511.735 308.201L493.433 324.275L497.204 295.452L518.945 236.474L508.186 172.507Z" fill="url(#paint5_linear_108:77)"/>
<path d="M396.52 101.02C396.52 101.02 385.937 100.11 377.952 98.335C371.52 96.7821 359.654 94.2308 355.551 92.567C337.919 85.5788 278.034 43.6495 275.594 39.6562C274.264 37.4377 263.839 50.0831 263.174 55.7402C263.063 57.2931 281.139 76.8158 288.68 85.3569C290.011 86.9099 301.323 98.7787 305.426 101.885C314.519 108.762 336.588 122.738 342.687 126.621C347.345 129.616 362.205 137.38 379.061 142.483C390.373 145.921 393.367 148.695 396.916 156.459C400.686 164.779 384.163 260.728 384.163 260.728C384.163 260.728 383.719 278.254 387.157 280.029C390.151 281.582 425.527 291.897 434.066 295.114C440.277 296.113 446.487 296.667 452.808 297L497.389 290.788C497.389 290.788 496.723 206.375 497.5 192.288C498.276 178.422 496.502 170.768 498.941 174.54C501.714 178.755 513.358 216.691 513.358 223.125C513.358 229.558 500.605 285.575 500.605 285.575L517.683 295.003C517.683 295.003 540.75 233.441 542.08 225.232C543.411 217.024 543.744 212.809 539.973 204.711C536.203 196.614 515.132 122.96 515.132 122.96C515.132 122.96 513.025 113.975 497.611 109.317C482.196 104.658 467.225 91.9014 449.925 101.885C432.07 112.09 424.751 101.552 424.751 101.552C424.751 101.552 416.492 104.089 406.622 102.536C396.753 100.983 396.52 101.02 396.52 101.02Z" fill="black"/>
<path d="M466.216 6.24451C468.195 7.80606 474.132 13.383 476.222 15.0561C478.64 16.9523 479.96 19.6292 482.049 23.0869C483.148 24.8716 484.798 29.8908 485.567 31.8986C489.965 43.2756 485.677 48.1833 482.269 56.3257C477.541 67.4796 466.876 69.1527 465.996 70.7142C457.53 67.9258 456.541 68.9296 452.802 70.1565C448.075 66.9219 445.986 62.5719 443.457 60.3411C444.996 58.1103 440.378 37.4755 436.97 48.2948C435.54 43.3871 431.142 33.1255 429.273 31.787C427.404 30.4485 425.205 28.7755 425.425 27.9947C426.415 23.4216 418.938 24.0908 425.535 19.2946C430.813 15.3907 432.902 6.35605 439.828 5.68681C444.116 5.24065 449.614 4.7945 454.012 4.12526C457.09 3.6791 459.619 5.12912 462.258 5.46373C463.687 5.57527 465.007 6.13297 466.216 6.80221" fill="black"/>
<g opacity="0.07">
<path d="M440.97 332.357C437.969 341.004 426.411 357.966 418.964 367.944C411.518 377.921 388.068 399.428 389.513 425.48C390.958 451.533 406.851 518.493 406.851 524.59C406.851 530.688 400.96 559.068 396.515 567.826C392.069 576.584 392.847 585.675 395.07 585.675C396.07 585.675 399.738 587.005 404.85 585.675C408.74 584.677 413.852 588.779 415.964 587.781C417.52 587.116 417.853 582.127 417.853 582.127C417.964 580.021 417.742 577.914 417.075 575.919C415.964 572.704 415.186 569.378 414.63 566.052C413.741 541.552 411.629 484.791 412.074 480.8C412.852 473.372 406.962 435.901 412.296 417.498C417.631 399.096 440.858 332.357 440.97 332.357Z" fill="white"/>
</g>
<g opacity="0.07">
<path d="M496.991 182.738L496.768 269.729C496.768 269.729 499 288.148 495.875 290.145C492.75 292.142 480.361 293.696 476.567 293.696C474 293.696 439.401 297.69 451.678 291.588C457.147 288.814 491.746 269.618 480.696 250.644C469.647 231.67 474.781 207.481 482.817 191.06C490.853 174.638 497.103 163.653 497.103 163.653L496.991 182.738Z" fill="black"/>
</g>
<path opacity="0.07" d="M430.867 78.0484C430.867 78.0484 448.98 75.8998 457.912 71.6024C466.844 67.3051 446.747 79.7367 440.296 84.6479C433.845 89.5592 430.867 78.0484 430.867 78.0484Z" fill="black"/>
<path opacity="0.07" d="M483.607 324.006C483.607 324.006 475.581 356.383 468.335 365.919C460.644 376.12 469.116 423.022 461.981 443.646C455.182 463.161 464.434 505.517 462.762 519.045C461.424 530.133 461.201 553.972 455.293 567.278C453.287 571.824 449.051 575.15 449.051 577.257C449.051 589.121 465.214 581.471 465.214 581.471L466.106 570.937L477.141 477.797L497.541 292.959L483.607 324.006Z" fill="black"/>
<defs>
<linearGradient id="paint0_linear_108:77" x1="195.416" y1="86.8089" x2="143.171" y2="106.466" gradientUnits="userSpaceOnUse">
<stop stop-color="#F19744"/>
<stop offset="1" stop-color="#F87C56"/>
</linearGradient>
<linearGradient id="paint1_linear_108:77" x1="209.114" y1="6.57308" x2="91.6183" y2="43.9188" gradientUnits="userSpaceOnUse">
<stop stop-color="#E5A4ED"/>
<stop offset="1" stop-color="#7A5BF5"/>
</linearGradient>
<linearGradient id="paint2_linear_108:77" x1="494.283" y1="356.113" x2="475.092" y2="367.387" gradientUnits="userSpaceOnUse">
<stop stop-color="#F19744"/>
<stop offset="1" stop-color="#F87C56"/>
</linearGradient>
<linearGradient id="paint3_linear_108:77" x1="498.758" y1="354.945" x2="478.557" y2="367.444" gradientUnits="userSpaceOnUse">
<stop stop-color="#F19744"/>
<stop offset="1" stop-color="#F87C56"/>
</linearGradient>
<linearGradient id="paint4_linear_108:77" x1="446.929" y1="242.483" x2="325.967" y2="282.095" gradientUnits="userSpaceOnUse">
<stop stop-color="#58CAEA"/>
<stop offset="1" stop-color="#4B45BD"/>
</linearGradient>
<linearGradient id="paint5_linear_108:77" x1="420.445" y1="-32.1151" x2="210.754" y2="107.242" gradientUnits="userSpaceOnUse">
<stop stop-color="#F19744"/>
<stop offset="1" stop-color="#F87C56"/>
</linearGradient>
</defs>
</svg>
