<svg width="896" height="596" viewBox="0 0 896 596" fill="none" xmlns="http://www.w3.org/2000/svg">
<path d="M796.641 114.272L822.818 90.6118L838.927 93.1288L852.519 131.387L838.927 195.822H808.723L791.104 174.176L796.641 114.272Z" fill="url(#paint0_linear_53:99)"/>
<rect width="333.782" height="211.245" rx="16.3321" transform="matrix(-0.991814 0.127691 0.127691 0.991814 594.927 48.3271)" fill="#E5E5E5" stroke="#151515" stroke-opacity="0.9" stroke-width="2.44982"/>
<rect width="102.24" height="9.77291" rx="4.88645" transform="matrix(-0.991814 0.127691 0.127691 0.991814 593.559 208.433)" fill="white" stroke="#151515" stroke-opacity="0.9" stroke-width="2.44982"/>
<rect width="73.6727" height="9.77291" rx="4.88645" transform="matrix(-0.991814 0.127691 0.127691 0.991814 595.958 227.073)" fill="white" stroke="#151515" stroke-opacity="0.9" stroke-width="2.44982"/>
<path d="M880.1 543.364H672.989C672.989 543.364 665.252 542.959 665.252 534.021V516.401H888.259V537.89C887.145 541.3 883.861 543.544 880.25 543.364" stroke="#151515" stroke-width="1.48321"/>
<path d="M888.123 381.733L888.259 523.144H665.252L665.329 377.654C665.329 377.654 663.971 369.495 672.652 369.495H879.714C879.714 369.495 889.074 369.495 888.123 381.855" fill="white"/>
<path d="M888.123 381.733L888.259 523.144H665.252L665.329 377.654C665.329 377.654 663.971 369.495 672.652 369.495H879.714C879.714 369.495 889.074 369.495 888.123 381.855" stroke="#151515" stroke-width="1.48321"/>
<path d="M794.336 543.374L761.584 543.296V578.008L794.336 581.425V543.374Z" stroke="#151515" stroke-width="1.48321"/>
<path d="M846.355 577.571L710.61 577.611L710.528 584.314H846.355V577.571Z" fill="black"/>
<path d="M777.719 526.997C775.089 526.997 772.718 528.581 771.712 531.011C770.705 533.441 771.261 536.238 773.121 538.097C774.981 539.957 777.777 540.513 780.207 539.507C782.637 538.5 784.221 536.129 784.221 533.499C784.221 529.908 781.31 526.997 777.719 526.997Z" fill="url(#paint1_linear_53:99)"/>
<rect width="211.929" height="15.8947" rx="7.94734" transform="matrix(-1 0 0 1 881.516 378.647)" stroke="#151515" stroke-width="1.48321"/>
<path d="M870.92 383.464C869.058 383.464 867.548 384.973 867.548 386.835C867.548 388.697 869.058 390.207 870.92 390.207C872.782 390.207 874.292 388.697 874.292 386.835C874.292 384.973 872.782 383.464 870.92 383.464Z" fill="url(#paint2_linear_53:99)"/>
<path d="M870.92 383.464C869.058 383.464 867.548 384.973 867.548 386.835C867.548 388.697 869.058 390.207 870.92 390.207C872.782 390.207 874.292 388.697 874.292 386.835C874.292 384.973 872.782 383.464 870.92 383.464" stroke="#151515" stroke-width="1.48321"/>
<path d="M859.841 383.464C857.979 383.464 856.47 384.973 856.47 386.835C856.47 388.697 857.979 390.207 859.841 390.207C861.703 390.207 863.213 388.697 863.213 386.835C863.213 385.941 862.858 385.083 862.225 384.451C861.593 383.819 860.735 383.464 859.841 383.464Z" fill="url(#paint3_linear_53:99)"/>
<path d="M859.841 383.464C857.979 383.464 856.47 384.973 856.47 386.835C856.47 388.697 857.979 390.207 859.841 390.207C861.703 390.207 863.213 388.697 863.213 386.835C863.213 385.941 862.858 385.083 862.225 384.451C861.593 383.819 860.735 383.464 859.841 383.464" stroke="#151515" stroke-width="1.48321"/>
<path d="M848.282 383.464C846.42 383.464 844.911 384.973 844.911 386.835C844.911 388.697 846.42 390.207 848.282 390.207C850.144 390.207 851.654 388.697 851.654 386.835C851.654 384.973 850.144 383.464 848.282 383.464Z" fill="url(#paint4_linear_53:99)"/>
<path d="M848.282 383.464C846.42 383.464 844.911 384.973 844.911 386.835C844.911 388.697 846.42 390.207 848.282 390.207C850.144 390.207 851.654 388.697 851.654 386.835C851.654 384.973 850.144 383.464 848.282 383.464" stroke="#151515" stroke-width="1.48321"/>
<path d="M800.157 425.729C800.26 427.478 801.778 428.819 803.56 428.735H843.717C845.786 428.735 847.8 427.399 847.8 425.729V419.729C847.8 418.059 845.827 416.709 843.717 416.709H803.642C801.855 416.562 800.282 417.856 800.116 419.609C800.116 419.609 800.116 419.689 800.116 419.729L800.157 425.729Z" stroke="#151515" stroke-width="1.48321"/>
<path d="M703.785 466.929C703.844 467.844 704.265 468.698 704.956 469.303C705.647 469.907 706.55 470.214 707.467 470.154H843.724C845.817 470.154 847.8 468.718 847.8 466.929V436.789C847.8 435.001 845.803 433.564 843.724 433.564H707.48C706.563 433.501 705.658 433.804 704.965 434.406C704.272 435.008 703.848 435.861 703.785 436.776V466.929Z" fill="url(#paint5_linear_53:99)" stroke="#151515" stroke-width="1.48321"/>
<path d="M803.006 494.782C803.006 495.663 803.357 496.509 803.981 497.131C804.605 497.753 805.451 498.101 806.332 498.097H843.728C845.832 498.097 847.8 496.616 847.8 494.795V478.273C847.8 476.466 845.791 474.985 843.728 474.985H806.563C805.685 474.926 804.82 475.219 804.16 475.801C803.5 476.383 803.099 477.204 803.047 478.083C803.047 478.083 803.047 478.205 803.047 478.273L803.006 494.782Z" fill="url(#paint6_linear_53:99)" stroke="#151515" stroke-width="1.48321"/>
<path d="M753.396 494.782C753.389 495.656 753.73 496.497 754.344 497.12C754.958 497.742 755.794 498.093 756.667 498.097H794.118C796.235 498.097 798.19 496.616 798.19 494.795V478.272C798.19 476.465 796.154 474.984 794.118 474.984H756.912C755.101 474.875 753.546 476.256 753.437 478.068C753.437 478.136 753.437 478.204 753.437 478.272L753.396 494.782Z" fill="url(#paint7_linear_53:99)" stroke="#151515" stroke-width="1.48321"/>
<path d="M703.785 494.786C703.901 496.725 705.566 498.204 707.504 498.088H744.67C746.652 498.23 748.385 496.765 748.579 494.786V478.276C748.379 476.302 746.647 474.845 744.67 474.987H707.518C706.587 474.928 705.671 475.241 704.971 475.857C704.271 476.474 703.844 477.344 703.785 478.276V494.786Z" fill="url(#paint8_linear_53:99)" stroke="#151515" stroke-width="1.48321"/>
<path d="M811.778 532.193L792.004 413.532C792.004 413.532 768.395 439.336 755.306 452.525C742.218 465.714 723.663 492.082 723.663 492.082L715.266 484.884C715.266 484.884 771.717 371.277 774.667 363.484C777.617 355.691 773.288 350.043 770.932 341.053C768.576 332.062 779.57 318.47 788.531 316.537C797.491 314.604 855.905 309.691 855.905 309.691C855.905 309.691 856.137 305.986 872.538 316.628C891.737 329.092 899.631 363.575 870.595 369.797C836.494 377.106 834.551 373.441 834.551 373.441C834.551 373.441 822.57 471.735 826.165 495.103C829.759 518.47 824.363 532.193 824.363 532.193H811.778Z" fill="black" stroke="#151515" stroke-width="1.03344"/>
<path d="M811.778 532.193H824.363C824.363 532.193 826.971 543.489 828.481 549.047C828.572 549.399 828.551 549.389 828.753 550.054C828.917 552.823 828.933 555.599 828.803 558.37C828.521 563.404 824.343 572.213 819.843 574.479C814.899 576.986 813.721 576.593 808.446 567.31C804.922 561.098 804.66 559.568 805.687 553.084C807.026 544.587 811.386 533.804 811.386 533.804" fill="#151515"/>
<path d="M716.323 483.071L724.207 491.921C724.207 491.921 720.683 502.201 718.669 507.537C718.538 507.879 718.246 508.775 718.025 509.409C717.646 510.311 717.17 511.168 716.605 511.966C713.585 516.044 709.85 518.692 705.369 518.43C700.426 518.148 696.409 518.239 695.301 511.715C694.194 505.191 695.301 502.221 701.493 496.341C707.685 490.461 716.303 483.051 716.303 483.051" fill="#151515"/>
<path d="M840.673 190.688C840.774 190.99 853.157 196.83 858.493 203.374C863.829 209.918 868.159 219.382 868.159 219.382C868.159 219.382 870.987 222.485 878.397 237.101C885.808 251.718 897.304 263.428 895.01 272.339C892.715 281.25 871.853 298.516 868.329 302.543C867.367 303.643 864.087 307.433 860.294 311.593C855.249 317.125 849.297 323.311 846.683 324.693C842.104 327.113 833.344 323.186 833.092 321.169C832.399 315.627 864.432 285.209 868.329 275.36C872.226 265.511 868.317 263.711 860.778 251.197C853.24 238.683 851.617 225.121 849.2 230.557C848.395 232.37 854.081 257.561 855.241 265.292C856.401 273.022 856.227 276.878 856.751 280.897C857.275 284.916 858.261 289.958 858.261 289.958C858.261 289.958 840.604 307.966 840.642 308.081C842.656 314.121 829.568 312.108 829.568 312.108L784.262 316.638C784.262 316.638 782.852 272.641 781.745 260.761C780.637 248.881 776.137 223.208 774.124 219.382C772.11 215.556 768.687 267.507 769.191 278.179C769.593 285.629 762.848 330.331 760.935 331.942C757.814 334.358 750.464 329.525 750.464 329.525C750.464 329.525 750.766 280.494 751.068 272.339C751.37 264.184 750.867 198.239 761.64 186.359C772.412 174.479 775.332 174.781 784.292 177.902C793.253 181.023 797.683 184.043 809.865 186.057C817.315 187.366 825.068 186.359 832.015 183.339C830.102 176.392 834.129 188.171 833.626 184.949" fill="url(#paint9_linear_53:99)"/>
<path opacity="0.07" d="M810.549 175.384C807.031 173.049 803.69 170.458 800.552 167.632C797.31 164.39 804.78 181.727 804.066 184.214C803.351 186.7 810.549 175.384 810.549 175.384Z" fill="black"/>
<path opacity="0.1" d="M775.01 220.861C777.467 232.882 777.93 238.017 781.242 254.216C784.554 270.416 784.262 316.638 784.262 316.638L810.439 314.624C810.439 314.624 813.389 297.931 804.771 285.799C796.153 273.668 796.716 273.949 796.716 267.033C796.716 260.116 799.072 252.354 795.539 246.504C792.005 240.655 775.01 220.861 775.01 220.861Z" fill="black"/>
<path opacity="0.1" d="M822.067 527.552L819.892 526.756L811.838 432.5C811.486 426.087 811.898 424.959 806.411 420.841C800.924 416.724 798.671 418.373 796.847 416.311C795.023 414.249 787.62 419.971 794.833 407.753C802.047 395.536 812.392 381.607 812.392 381.607C813.026 380.348 812.533 380.982 816.419 374.65L818.433 371.72C819.656 369.871 821.123 368.195 822.792 366.736C828.168 362.125 835.216 356.769 839.334 356.769L864.796 356.527C864.796 356.527 872.578 356.729 872.578 361.752C872.578 366.776 849.14 371.488 842.374 371.971C835.609 372.455 832.86 372.354 831.058 390.879C827.141 431.151 827.091 448.267 825.017 488.689C824.886 491.307 826.356 503.187 826.598 507.617C826.739 510.144 826.598 522.588 825.52 528.146C825.782 527.069 823.144 527.753 822.067 527.552Z" fill="black"/>
<path opacity="0.1" d="M831.562 334.529C831.562 334.529 806.392 338.999 792.296 347.194C780.024 354.312 776.409 363.011 776.188 364.179C775.604 367.199 777.023 359.608 774.949 353.205C772.875 346.802 797.955 337.197 797.955 337.197L831.562 334.529Z" fill="black"/>
<path fill-rule="evenodd" clip-rule="evenodd" d="M761.105 331.739C761.105 331.739 751.037 328.719 736.942 330.229C722.847 331.739 728.384 337.78 741.976 337.78C755.568 337.78 761.105 334.76 761.105 334.76V331.739Z" fill="black" stroke="#151515" stroke-width="1.03344"/>
<path fill-rule="evenodd" clip-rule="evenodd" d="M860.998 312.79C860.998 312.79 856.255 309.945 849.441 306.276C842.627 302.607 845.103 304.411 851.629 308.029C858.156 311.647 860.907 312.955 860.907 312.955L860.998 312.79Z" stroke="#151515" stroke-width="1.03344"/>
<path d="M828.793 80.9474C828.793 80.9474 844.801 81.5515 849.332 97.1568C853.862 112.762 854.567 134.71 854.668 138.133C854.869 141.758 852.956 166.324 854.97 173.17C856.782 179.211 861.917 190.386 865.038 198.139C866.246 201.159 867.152 204.381 867.756 207.602L868.159 210.22C867.353 212.938 864.434 214.549 861.615 213.643C861.413 213.543 861.212 213.543 861.111 213.442C859.5 212.737 857.99 211.932 856.48 211.026C851.647 208.106 845.506 200.354 840.673 197.937C835.538 195.42 829.699 183.741 828.894 182.835C828.088 181.929 828.39 179.009 828.29 176.19C827.786 161.592 830.504 148.201 833.928 141.154C837.351 134.106 845.204 120.313 839.767 112.359C834.33 104.406 822.954 98.0629 822.45 96.15C821.947 94.2371 821.645 103.802 815.604 107.225C809.563 110.648 801.106 119.81 801.106 121.823C801.106 123.837 799.092 130.381 804.831 141.758C810.57 153.135 815.1 167.633 807.147 178.506C799.193 189.379 779.158 204.481 777.748 207.904C776.339 211.328 777.748 226.53 778.252 235.088C778.755 243.646 762.042 220.489 762.646 209.314C763.25 198.139 761.237 193.306 772.614 176.291C783.99 159.276 791.441 129.878 791.743 122.729C792.045 115.581 795.468 95.848 802.314 90.1092C808.154 85.2766 809.462 80.5447 821.645 80.5447C824.061 80.5447 826.477 80.746 828.793 80.9474Z" fill="black"/>
<ellipse rx="36.7481" ry="68.9656" transform="matrix(-1 0 0 1 354.154 239.115)" fill="url(#paint10_linear_53:99)"/>
<path d="M282.581 563.807C288.521 553.94 293.253 551.322 307.952 550.92C322.652 550.517 342.183 550.718 342.183 550.718L342.385 571.559C342.385 571.559 326.175 580.922 317.517 585.553C317.013 585.855 315.604 586.661 314.597 587.265C313.087 587.97 311.476 588.574 309.865 588.976C301.307 590.789 293.555 589.883 288.018 584.345C281.876 578.204 276.641 573.673 282.581 563.807Z" fill="#151515"/>
<path d="M393.429 545.282C393.933 545.684 395.242 546.691 396.148 547.396C397.356 548.503 398.463 549.812 399.47 551.121C404.303 558.37 406.417 565.921 403.296 573.17C399.873 581.124 397.557 587.768 386.281 585.856C375.005 583.943 370.676 580.52 364.836 567.129C358.997 553.739 351.849 535.415 351.949 535.415L371.179 527.461C371.179 527.461 385.878 539.039 393.429 545.282Z" fill="#151515"/>
<path d="M340.874 551.625C340.874 551.625 340.572 572.667 343.995 573.17C347.419 573.674 394.637 566.828 413.464 565.821C432.292 564.814 474.98 552.632 495.921 528.972C514.043 508.534 511.224 485.881 497.834 485.881C484.444 485.881 472.161 474.504 438.131 490.714C404.101 506.923 368.058 509.641 347.821 508.031C327.585 506.42 270.902 495.949 266.472 492.727C262.042 489.506 240.799 480.243 211.199 483.465C181.599 486.687 195.594 510.145 201.836 519.206C210.595 531.791 231.335 545.282 248.652 545.886C265.969 546.49 340.874 551.625 340.874 551.625Z" fill="url(#paint11_linear_53:99)"/>
<path d="M271.204 300.731C286.709 286.535 291.944 283.112 305.536 287.944C319.128 292.777 325.773 297.207 344.298 300.227C355.674 302.241 367.454 300.731 378.025 296.1L416.183 299.925C421.016 299.321 475.282 401.209 476.591 422.352C477.396 435.34 447.897 455.375 439.641 457.388C436.319 458.194 430.379 426.178 428.466 423.258L440.849 419.432C438.635 413.895 431.184 400.202 426.251 392.853C424.741 390.537 412.961 371.106 411.35 363.656C411.048 364.36 409.337 378.456 407.726 382.986C404.705 391.343 400.578 396.074 400.578 402.719C400.578 409.364 401.383 435.742 406.216 447.622C411.048 459.503 418.096 486.988 418.096 486.988L296.072 486.283C296.072 486.283 300.502 433.829 298.69 415.808C298.69 415.808 300.603 408.559 296.978 398.088C291.038 380.771 289.327 354.997 290.333 350.97C291.844 344.627 254.491 398.289 246.336 411.881C242.913 417.519 289.327 427.487 293.152 431.816C297.18 436.346 289.226 448.629 289.226 448.629C289.226 448.629 208.279 438.763 208.682 426.379C209.085 413.995 253.183 317.142 271.204 300.731Z" fill="black" stroke="#151515" stroke-width="1.03344"/>
<path d="M366.145 154.645C366.145 154.645 388.798 155.551 395.342 179.311C401.886 203.072 402.792 236.195 402.994 241.33C403.195 246.767 400.678 278.581 412.86 291.871C423.331 303.348 419.102 314.423 421.72 323.585L422.928 338.788C422.727 340.6 421.418 342.11 419.706 342.714C418.096 343.218 412.458 340.6 411.451 340.197C397.356 334.559 397.356 330.029 392.02 325.498C387.59 321.773 375.407 313.114 371.783 309.691C368.158 306.268 365.641 303.248 365.44 298.919C364.735 276.87 368.561 256.532 373.394 245.76C378.226 234.987 387.489 216.764 379.737 204.682C371.984 192.601 357.99 180.519 357.184 177.499C356.379 174.479 355.976 189.178 347.418 194.312C338.861 199.447 331.712 206.595 329.095 213.542C326.88 219.382 323.96 229.349 332.014 246.565C340.069 263.781 346.613 285.931 335.236 302.342C323.859 318.752 299.898 336.472 295.971 344.728C291.541 353.89 295.77 375.435 296.575 388.423C297.381 401.411 271.204 365.871 272.009 348.956C272.815 332.042 269.996 324.793 286.205 298.818C302.415 272.843 312.986 228.342 313.389 217.569C313.791 206.797 318.624 176.895 328.39 168.337C336.847 161.088 338.659 154.041 355.976 154.041C359.399 154.041 362.822 154.242 366.145 154.645Z" fill="black"/>
<path opacity="0.07" d="M417.794 514.675L303.422 515.279C303.422 515.279 316.812 525.75 323.256 526.958C329.699 528.166 357.285 541.859 367.555 536.623C374.804 532.697 417.794 514.675 417.794 514.675Z" fill="black"/>
<path opacity="0.07" d="M354.063 257.841C354.063 257.841 343.391 260.559 338.962 254.317C328.994 240.222 338.055 261.465 338.055 261.465C338.055 261.465 340.975 269.721 340.774 273.849C340.572 277.977 352.251 258.445 354.063 257.841Z" fill="black"/>
<path opacity="0.07" d="M396.752 330.331C398.061 331.942 399.974 333.25 400.98 337.378C402.692 344.023 404.504 351.473 409.135 358.32C411.854 362.347 410.344 377.952 405.813 387.819C404.504 390.638 400.477 397.987 400.578 399.699L400.88 413.996H388.597C388.597 413.996 378.126 415.103 380.341 406.445C382.254 398.793 392.221 370.301 385.476 364.058C372.79 352.48 388.798 329.324 382.858 321.874C377.723 315.43 370.374 310.799 370.374 308.685C370.374 307.879 372.287 310.497 373.596 311.403C376.113 313.215 377.421 314.625 379.536 316.034C381.851 317.544 385.375 320.061 387.691 321.773C391.013 324.29 394.034 327.109 396.752 330.331Z" fill="black"/>
<path d="M444.575 422.05C444.575 422.05 444.675 414.599 437.326 414.297C429.976 413.995 274.325 414.197 274.325 414.197C274.325 414.197 267.479 415.002 267.278 420.54C267.076 426.077 267.076 508.332 267.076 508.332C267.076 508.332 266.976 514.675 273.721 514.876C280.467 515.078 439.138 515.078 439.138 515.078C439.138 515.078 445.078 513.568 444.977 507.627C444.877 501.687 444.575 422.05 444.575 422.05Z" fill="#EDEDED" stroke="black" stroke-width="1.24066"/>
<circle r="6.74554" transform="matrix(-1 0 0 1 355.372 464.638)" fill="black"/>
<path d="M643.765 562.449C648.899 563.456 666.82 557.919 669.841 555.1C670.847 554.194 671.653 551.576 672.458 550.468C673.163 546.945 674.875 548.757 676.586 548.455C681.721 547.347 695.615 543.723 702.159 547.247C703.367 549.965 703.468 552.583 704.273 554.093C705.985 560.939 707.092 567.987 707.797 575.034C708.3 579.364 705.179 583.189 700.951 583.693C700.951 583.693 700.951 583.693 700.85 583.693H700.749C699.34 583.793 697.829 583.693 696.319 583.491C685.245 580.773 662.793 580.068 654.135 576.645C639.637 572.819 631.381 565.168 643.765 562.449Z" fill="#151515"/>
<path d="M471.502 570.605C476.536 571.914 494.86 567.484 497.981 564.866C499.088 564.061 499.994 561.544 500.9 560.436C501.806 557.013 503.417 558.826 505.129 558.624C510.364 557.819 524.459 555 530.802 558.926C531.91 561.645 531.708 564.363 532.413 565.873C533.621 572.82 534.427 579.968 534.628 587.016C534.829 591.345 531.507 594.97 527.178 595.272C527.178 595.272 527.178 595.272 527.077 595.272H526.976C525.567 595.372 524.057 595.171 522.647 594.869C511.774 591.446 489.423 589.432 480.966 585.405C466.77 580.673 458.917 572.518 471.502 570.605Z" fill="#151515"/>
<path d="M702.763 547.448C694.004 548.656 672.962 548.958 672.962 548.958C672.962 548.958 671.653 538.689 665.209 518.956C658.665 498.921 625.743 436.096 625.743 436.096C618.997 425.827 611.95 404.584 611.95 404.584L602.083 323.235C602.083 323.235 550.032 404.483 550.736 422.907C551.441 441.332 538.554 513.418 538.554 513.418C537.245 524.191 530.802 559.832 530.802 559.832C521.137 558.624 511.371 558.422 501.605 559.026C502.914 544.226 508.25 483.517 508.25 483.517C508.25 483.517 511.572 436.398 512.277 407.705C512.981 379.011 533.419 318.503 547.213 290.816C549.025 286.084 550.535 281.352 551.743 276.418L614.411 280.393L673.465 291.822C670.747 299.575 668.532 307.428 666.921 315.482C659.772 351.425 654.738 411.833 654.738 411.833C673.767 433.378 685.748 473.952 685.748 473.952C693.5 498.316 702.763 547.448 702.763 547.448Z" fill="url(#paint12_linear_53:99)"/>
<path d="M586.377 187.217C601.58 173.424 611.245 130.434 616.078 119.661C620.911 108.888 628.663 105.868 631.683 104.66C633.193 104.055 641.55 101.74 647.792 99.9276L602.486 71.4352C596.345 59.8571 608.426 52.9102 608.426 52.9102L659.974 78.4828V95.9004L676.687 93.182L696.622 89.2555C702.763 87.846 709.005 86.8392 715.247 86.3358C717.865 86.1345 720.483 86.4365 723 87.3426L724.309 87.846C727.43 88.9535 730.047 91.1684 731.557 94.1888C734.779 101.236 736.994 108.787 738.001 116.439C739.914 128.823 730.349 156.912 720.583 177.35C716.355 186.009 699.843 230.509 695.716 241.685C675.58 288.4 674.17 292.024 674.17 292.024C654.683 289.958 652.669 288.448 615.921 283.917C579.173 279.387 551.99 276.366 551.99 276.366C549.171 271.232 559.496 257.592 559.496 257.592L540.77 273.097C532.614 275.714 525.869 257.491 525.869 257.491C525.869 257.491 573.591 198.795 586.377 187.217Z" fill="url(#paint13_linear_53:99)"/>
<path d="M567.449 48.8816C586.175 45.3578 605.405 52.0027 605.405 52.0027L609.376 53.8628C609.376 53.8628 602.129 59.1802 602.329 61.9172C602.529 64.6542 602.329 71.4817 602.329 71.4817C597.396 69.7702 595.539 69.3196 591.109 69.6216C587.786 69.4202 579.933 71.0311 576.208 68.0107C573.389 66.7019 572.886 64.3863 567.147 58.7482C563.019 54.2176 564.227 52.9088 562.616 52.3047C560.502 51.3986 562.314 49.2843 567.449 48.8816Z" fill="black" stroke="#151515" stroke-width="1.03344"/>
<path d="M500.642 274.855C500.844 273.848 505.575 274.755 506.18 273.848C510.106 268.311 514.29 262.122 524.157 258.799C526.976 257.893 522.892 258.042 525.812 257.74L540.914 273.345C540.109 275.359 533.866 279.889 533.866 279.889C533.866 279.889 523.854 286.99 508.35 284.976C504.725 284.573 500.139 278.58 500.642 274.855Z" fill="black" stroke="#151515" stroke-width="1.03344"/>
<path d="M639.737 18.5773C641.952 18.5773 688.668 54.6206 689.07 58.6478C689.171 60.7621 689.272 69.9239 690.883 75.9647C692.393 81.6028 696.923 89.6571 696.923 89.6571C696.923 89.6571 692.896 97.2081 682.425 98.7183C675.14 99.7382 666.063 98.2806 661.602 97.3968C659.897 97.0592 647.635 100.176 647.635 100.176C647.635 100.176 660.613 98.3753 660.22 95.1417C659.516 89.354 660.992 76.2943 658.162 74.6559C654.839 72.7429 653.832 74.7565 642.355 65.0913C630.877 55.426 634.603 31.0616 634.905 29.4507C635.207 27.8398 637.522 18.5773 639.737 18.5773Z" fill="url(#paint14_linear_53:99)"/>
<path d="M697.83 20.6921C696.823 18.8799 694.608 14.752 693.299 13.2418C691.084 10.9262 688.668 8.71124 686.151 6.59697C683.835 5.18745 678.097 2.26774 675.882 1.05959C668.029 -1.35673 657.558 1.05959 649.906 1.4623C642.959 0.958906 637.825 9.61736 635.106 15.3561C632.388 21.0948 637.623 20.3901 637.12 24.82C637.019 25.6254 639.335 26.8336 641.348 27.9411C643.362 29.0485 649.101 38.2104 651.114 42.5396C653.229 31.9683 660.276 50.7953 658.967 53.111C661.786 54.9232 665.21 62.5749 670.244 64.9912C673.767 63.481 680.311 57.6416 689.071 59.2524C689.675 57.6416 698.333 51.1981 699.239 40.3247C699.944 37.1029 700.649 25.5247 697.83 20.6921Z" fill="black"/>
<path opacity="0.07" d="M671.149 68.2133C671.149 68.2133 663.296 75.2608 658.564 75.0595L659.773 80.9996L659.471 89.5574C659.471 89.5574 662.491 84.7247 666.317 79.7914C668.733 76.3683 670.445 72.4418 671.149 68.2133Z" fill="black"/>
<path opacity="0.07" d="M642.657 154.697C642.657 154.697 632.79 184.397 602.385 215.306C571.98 246.215 564.63 252.658 564.63 252.658C564.63 252.658 558.388 260.511 560.402 265.747C562.415 270.982 575.705 253.464 605.506 239.872C622.521 232.12 628.36 218.729 636.214 200.003C646.08 176.343 648.295 171.309 649.604 162.852C652.926 140.702 642.657 154.697 642.657 154.697Z" fill="black"/>
<path opacity="0.07" d="M602.184 323.134C602.184 323.134 616.581 354.244 620.709 369.446C624.937 385.152 624.937 408.007 637.623 419.082C652.02 431.666 668.934 473.952 672.861 482.912C678.398 495.699 689.775 566.175 686.453 571.108C683.231 575.94 670.243 568.692 670.243 568.692C670.243 568.692 674.975 550.771 670.948 534.561C666.921 518.352 647.993 475.059 636.113 453.615C625.34 434.385 614.366 412.135 611.95 399.248C609.533 386.361 602.184 323.134 602.184 323.134Z" fill="black"/>
<path d="M173.953 521.01C173.953 521.01 162.174 456.877 224.293 422.546C286.412 388.214 289.332 388.617 301.615 384.69C308.662 382.274 315.911 387.308 307.756 397.577C299.601 407.846 304.233 410.464 287.922 414.995C271.612 419.525 269.095 439.46 260.94 444.393C252.785 449.326 245.637 450.635 220.668 461.408C198.015 471.174 178.685 498.76 178.685 508.526C178.685 518.292 156.535 521.514 156.535 521.514L173.953 521.01Z" fill="url(#paint15_linear_53:99)"/>
<path d="M176.168 522.118C176.168 522.118 160.362 463.119 214.729 431.204C269.096 399.288 288.124 399.691 298.897 395.865C305.038 393.65 288.124 401.302 281.076 410.766C274.029 420.23 275.74 418.115 262.954 425.163C248.154 433.318 242.013 441.272 233.354 442.883C220.769 445.299 224.494 458.387 202.647 468.254C182.914 477.214 180.397 501.176 180.397 510.237C180.397 519.299 161.066 522.319 161.066 522.319L176.168 522.118Z" fill="url(#paint16_linear_53:99)"/>
<path d="M121.398 503.391L115.257 497.551C112.337 494.833 108.713 492.819 104.786 491.813C85.5562 486.779 25.1484 467.851 0.0791626 422.142C-0.122192 421.74 0.0791473 421.236 0.481873 421.035H0.582565C0.683243 421.035 0.78392 420.934 0.884598 420.934C9.24101 420.33 52.2312 419.625 109.719 468.656C110.726 469.462 111.733 470.469 112.538 471.475C113.948 473.489 116.364 476.912 117.472 478.724C118.982 481.342 115.961 485.772 119.989 489.698C124.016 493.625 132.674 503.391 132.674 503.391L125.627 508.626L121.398 503.391Z" fill="url(#paint17_linear_53:99)"/>
<path d="M154.119 499.565C154.119 499.565 137.608 351.969 182.611 305.555C224.091 262.867 224.695 302.132 224.595 308.777C224.595 309.381 224.393 309.885 224.192 310.388C214.426 328.611 211.003 349.653 214.527 369.99C218.755 391.334 188.249 388.515 185.632 409.558C183.014 430.6 172.342 463.018 173.45 477.919C174.557 492.82 174.658 507.317 174.658 507.317L158.046 507.821L154.119 499.565Z" fill="url(#paint18_linear_53:99)"/>
<path d="M156.175 501.075C156.08 500.773 155.984 500.37 155.888 500.068C154.931 490.403 141.726 351.365 183.065 306.562C222.203 264.075 222.777 302.535 222.586 309.482C222.49 310.287 222.107 311.093 221.724 311.797C218.854 316.227 205.935 335.558 194.452 333.343C162.778 327.403 190.72 367.473 173.496 388.918C159.716 405.832 164.309 464.226 165.362 479.228C166.032 487.685 167.371 495.941 169.381 504.196C169.764 506.311 168.424 508.324 166.51 508.727C166.414 508.727 166.319 508.727 166.223 508.727C165.936 508.727 165.744 508.828 165.457 508.828H162.587C160.864 508.928 159.333 508.022 158.568 506.411L156.175 501.075Z" fill="url(#paint19_linear_53:99)"/>
<path d="M138.111 508.627C138.111 508.627 135.191 467.751 111.33 442.782C104.685 435.936 96.228 431.204 86.9655 429.09C79.8172 427.479 68.1384 421.74 57.9697 402.611C57.9697 402.611 38.7399 375.427 19.5101 367.172C0.280304 358.916 19.5101 357.909 19.5101 357.909C19.5101 357.909 74.4812 368.38 109.719 400.597C111.934 402.611 114.25 404.524 116.767 406.135C125.929 412.377 151.199 435.936 150.092 504.7L138.111 508.627Z" fill="url(#paint20_linear_53:99)"/>
<path d="M90.3888 505.304C90.3888 505.304 89.5834 500.37 96.1276 500.471C101.866 500.672 198.922 499.968 198.922 499.968C198.922 499.968 203.452 499.968 203.15 503.391C202.848 506.814 188.149 587.66 186.739 589.371C186.135 590.378 185.128 591.183 183.92 591.485C182.108 591.989 113.948 591.586 113.948 591.586C112.337 591.385 111.129 590.076 111.028 588.465C111.129 588.566 90.1875 506.31 90.3888 505.304Z" fill="black"/>
<path d="M90.3888 505.304C90.3888 505.304 89.5834 500.37 96.1276 500.471C101.866 500.672 198.922 499.968 198.922 499.968C198.922 499.968 203.452 499.968 203.15 503.391C202.848 506.814 188.149 587.66 186.739 589.371C186.135 590.378 185.128 591.183 183.92 591.485C182.108 591.989 113.948 591.586 113.948 591.586C112.337 591.385 111.129 590.076 111.028 588.465C111.129 588.566 90.1875 506.31 90.3888 505.304" stroke="#151515" stroke-width="3.10032"/>
<defs>
<linearGradient id="paint0_linear_53:99" x1="815.437" y1="80.1921" x2="869.456" y2="103.713" gradientUnits="userSpaceOnUse">
<stop stop-color="#F19744"/>
<stop offset="1" stop-color="#F87C56"/>
</linearGradient>
<linearGradient id="paint1_linear_53:99" x1="776.387" y1="525.685" x2="785.18" y2="532.243" gradientUnits="userSpaceOnUse">
<stop stop-color="#E5A4ED"/>
<stop offset="1" stop-color="#7A5BF5"/>
</linearGradient>
<linearGradient id="paint2_linear_53:99" x1="870.23" y1="382.783" x2="874.788" y2="386.184" gradientUnits="userSpaceOnUse">
<stop stop-color="#58CAEA"/>
<stop offset="1" stop-color="#4B45BD"/>
</linearGradient>
<linearGradient id="paint3_linear_53:99" x1="859.151" y1="382.783" x2="863.71" y2="386.184" gradientUnits="userSpaceOnUse">
<stop stop-color="#58CAEA"/>
<stop offset="1" stop-color="#4B45BD"/>
</linearGradient>
<linearGradient id="paint4_linear_53:99" x1="847.592" y1="382.783" x2="852.151" y2="386.184" gradientUnits="userSpaceOnUse">
<stop stop-color="#58CAEA"/>
<stop offset="1" stop-color="#4B45BD"/>
</linearGradient>
<linearGradient id="paint5_linear_53:99" x1="761.049" y1="429.861" x2="776.815" y2="476.127" gradientUnits="userSpaceOnUse">
<stop stop-color="#58CAEA"/>
<stop offset="1" stop-color="#4B45BD"/>
</linearGradient>
<linearGradient id="paint6_linear_53:99" x1="820.754" y1="472.688" x2="835.929" y2="494.619" gradientUnits="userSpaceOnUse">
<stop stop-color="#93DF93"/>
<stop offset="1" stop-color="#21C2C1"/>
</linearGradient>
<linearGradient id="paint7_linear_53:99" x1="771.144" y1="472.688" x2="786.319" y2="494.619" gradientUnits="userSpaceOnUse">
<stop stop-color="#93DF93"/>
<stop offset="1" stop-color="#21C2C1"/>
</linearGradient>
<linearGradient id="paint8_linear_53:99" x1="721.533" y1="472.688" x2="736.708" y2="494.619" gradientUnits="userSpaceOnUse">
<stop stop-color="#93DF93"/>
<stop offset="1" stop-color="#21C2C1"/>
</linearGradient>
<linearGradient id="paint9_linear_53:99" x1="807.853" y1="160.557" x2="910.515" y2="231.405" gradientUnits="userSpaceOnUse">
<stop stop-color="#93DF93"/>
<stop offset="1" stop-color="#21C2C1"/>
</linearGradient>
<linearGradient id="paint10_linear_53:99" x1="44.3761" y1="-13.6602" x2="-22.0346" y2="12.7352" gradientUnits="userSpaceOnUse">
<stop stop-color="#F19744"/>
<stop offset="1" stop-color="#F87C56"/>
</linearGradient>
<linearGradient id="paint11_linear_53:99" x1="318.542" y1="472.797" x2="361.867" y2="584.663" gradientUnits="userSpaceOnUse">
<stop stop-color="#E5A4ED"/>
<stop offset="1" stop-color="#7A5BF5"/>
</linearGradient>
<linearGradient id="paint12_linear_53:99" x1="581.59" y1="247.814" x2="746.915" y2="335.341" gradientUnits="userSpaceOnUse">
<stop stop-color="#58CAEA"/>
<stop offset="1" stop-color="#4B45BD"/>
</linearGradient>
<linearGradient id="paint13_linear_53:99" x1="610.316" y1="28.7765" x2="765.62" y2="131.667" gradientUnits="userSpaceOnUse">
<stop stop-color="#E5A4ED"/>
<stop offset="1" stop-color="#7A5BF5"/>
</linearGradient>
<linearGradient id="paint14_linear_53:99" x1="658.986" y1="10.496" x2="708.421" y2="38.8904" gradientUnits="userSpaceOnUse">
<stop stop-color="#F19744"/>
<stop offset="1" stop-color="#F87C56"/>
</linearGradient>
<linearGradient id="paint15_linear_53:99" x1="244.413" y1="493.835" x2="321.971" y2="439.395" gradientUnits="userSpaceOnUse">
<stop stop-color="#93DF93"/>
<stop offset="1" stop-color="#21C2C1"/>
</linearGradient>
<linearGradient id="paint16_linear_53:99" x1="216.199" y1="382.918" x2="303.402" y2="454.277" gradientUnits="userSpaceOnUse">
<stop stop-color="#93DF93"/>
<stop offset="1" stop-color="#21C2C1"/>
</linearGradient>
<linearGradient id="paint17_linear_53:99" x1="52.5673" y1="412.099" x2="113.732" y2="481.018" gradientUnits="userSpaceOnUse">
<stop stop-color="#93DF93"/>
<stop offset="1" stop-color="#21C2C1"/>
</linearGradient>
<linearGradient id="paint18_linear_53:99" x1="164.876" y1="437.454" x2="186.86" y2="310.442" gradientUnits="userSpaceOnUse">
<stop stop-color="#93DF93"/>
<stop offset="1" stop-color="#21C2C1"/>
</linearGradient>
<linearGradient id="paint19_linear_53:99" x1="180.66" y1="264.892" x2="249.591" y2="280.984" gradientUnits="userSpaceOnUse">
<stop stop-color="#93DF93"/>
<stop offset="1" stop-color="#21C2C1"/>
</linearGradient>
<linearGradient id="paint20_linear_53:99" x1="66.1018" y1="342.983" x2="164.865" y2="411.004" gradientUnits="userSpaceOnUse">
<stop stop-color="#93DF93"/>
<stop offset="1" stop-color="#21C2C1"/>
</linearGradient>
</defs>
</svg>
