<svg width="123" height="129" viewBox="0 0 123 129" fill="none" xmlns="http://www.w3.org/2000/svg">
<path d="M39.727 62.6767C40.457 63.7102 41.3579 64.6266 42.3956 65.3908L40.5326 66.7072C39.8629 66.1627 39.2597 65.5494 38.7344 64.8785L32.98 57.6691L30.5452 66.2696H28.1104L31.2178 55.5419L28.3693 52.0746H31.1422L36.6844 59.0126L39.3782 52.0746H41.8957L38.346 60.9668L39.727 62.6767Z" fill="#5C11D5"/>
<path d="M47.2112 64.9463C50.1388 63.3585 52.2463 60.9158 52.2463 57.2992V53.8556H44.2944V48.1865H46.7077V52.0779H54.6595V56.9362C54.7106 58.9686 54.1195 60.9693 52.9616 62.6839C51.8037 64.3984 50.1312 65.7493 48.1571 66.5646L47.2112 64.9463Z" fill="#5C11D5"/>
<path d="M59.0257 66.2661V53.8557H57.436V52.0746H61.4497V66.2661H59.0257Z" fill="#5C11D5"/>
<path d="M64.5933 66.2661V64.4782H68.5027C70.7829 64.4782 72.2071 62.8904 72.2071 60.3527V53.8557H64.5933V52.0746H74.6167V60.2577C74.6167 63.8505 72.3869 66.2661 69.0206 66.2661H64.5933Z" fill="#5C11D5"/>
<path d="M80.3061 64.9329L81.4209 59.8982H78.4287V58.1848H81.8022L82.7696 53.8965H79.5328V52.1798H83.1293L84.2442 47.1993H86.4021L85.3232 52.1798H89.6066L90.7179 47.1993H92.8758L91.7609 52.1798H94.9977V53.8965H91.3617L90.423 58.1848H93.8828V59.9016H90.0417L88.9269 64.9363H86.769L87.8838 59.9016H83.604L82.4891 64.9363L80.3061 64.9329ZM83.9709 58.1814H88.2867L89.193 53.8931H84.9095L83.9709 58.1814Z" fill="#5C11D5"/>
<path d="M35.9651 93.8794C39.6192 91.4638 42.1799 88.0168 42.1799 83.3383V78.0864H28.0024V74.4054H47.1826V82.7209C47.2408 85.6731 46.4419 88.5841 44.8722 91.1388C43.3026 93.6935 41.0222 95.7945 38.2776 97.2144L35.9651 93.8794ZM28.3226 104.651V87.7861C28.2873 86.536 28.656 85.3054 29.3799 84.2577H33.5627C33.217 85.5991 33.0812 86.981 33.1598 88.3595V104.644L28.3226 104.651Z" fill="#5C11D5"/>
<path d="M54.3649 87.5181C54.9727 85.1887 55.233 82.7907 55.1382 80.3935V78.0864H51.3223V74.4054H60.1409V78.6191C60.1409 83.1415 59.7381 86.0185 58.5944 88.3561L54.3649 87.5181Z" fill="#5C11D5"/>
<path d="M67.0855 87.5181C67.6906 85.1883 67.9496 82.7905 67.8551 80.3935V78.0864H64.0356V74.4054H72.8543V78.6191C72.8543 83.1415 72.4514 86.0185 71.3078 88.3561L67.0855 87.5181Z" fill="#5C11D5"/>
<path d="M81.5073 94.1469C86.1 91.7721 89.1498 88.091 89.1498 83.0325V78.086H77.1592V68.5865H82.1943V74.4152H94.1813V82.1912C94.2622 85.4837 93.2638 88.7196 91.3225 91.4568C89.3811 94.1941 86.5914 96.2995 83.3343 97.4853L81.5073 94.1469Z" fill="#5C11D5"/>
<path d="M60.8639 24.7502C52.5452 25.2999 32.3221 27.9461 32.8688 35.2675C33.4154 42.5889 57.7637 41.8018 62.1119 41.5134C66.46 41.225 90.9018 39.0401 90.3407 31.4677C89.8624 25.1132 73.0308 23.9462 60.8639 24.7502ZM61.7055 38.3209C49.4954 39.1284 36.3718 37.181 36.1955 34.8332C36.0193 32.4855 48.4776 28.9809 60.9646 28.1531C73.5739 27.3083 86.6183 28.8859 86.8125 31.4983C87.0068 34.1106 73.912 37.5203 61.7055 38.3277V38.3209Z" fill="#69F0ED"/>
</svg>
