<svg width="639" height="647" viewBox="0 0 639 647" fill="none" xmlns="http://www.w3.org/2000/svg">
<circle cx="473" cy="136" r="15" fill="url(#paint0_linear_108:79)"/>
<ellipse cx="319" cy="596" rx="319" ry="51" fill="#E4E0F1"/>
<path d="M465.485 526.492C465.485 526.492 477.185 462.792 415.485 428.692C353.785 394.592 350.885 394.992 338.685 391.092C331.685 388.692 324.485 393.692 332.585 403.892C340.685 414.092 336.085 416.692 352.285 421.192C368.485 425.692 370.985 445.492 379.085 450.392C387.185 455.292 394.285 456.592 419.085 467.292C441.585 476.992 460.785 504.392 460.785 514.092C460.785 523.792 482.785 526.992 482.785 526.992L465.485 526.492Z" fill="url(#paint1_linear_108:79)"/>
<path d="M463.285 527.592C463.285 527.592 478.985 468.992 424.985 437.292C370.985 405.592 352.085 405.992 341.385 402.192C335.285 399.992 352.085 407.592 359.085 416.992C366.085 426.392 364.385 424.292 377.085 431.292C391.785 439.392 397.885 447.292 406.485 448.892C418.985 451.292 415.285 464.292 436.985 474.092C456.585 482.992 459.085 506.792 459.085 515.792C459.085 524.792 478.285 527.792 478.285 527.792L463.285 527.592Z" fill="url(#paint2_linear_108:79)"/>
<path d="M517.685 508.992L523.785 503.192C526.685 500.492 530.285 498.492 534.185 497.492C553.285 492.492 613.285 473.692 638.185 428.292C638.385 427.892 638.185 427.392 637.785 427.192H637.685C637.585 427.192 637.485 427.092 637.385 427.092C629.085 426.492 586.385 425.792 529.285 474.492C528.285 475.292 527.285 476.292 526.485 477.292C525.085 479.292 522.685 482.692 521.585 484.492C520.085 487.092 523.085 491.492 519.085 495.392C515.085 499.292 506.485 508.992 506.485 508.992L513.485 514.192L517.685 508.992Z" fill="url(#paint3_linear_108:79)"/>
<path d="M485.185 505.192C485.185 505.192 501.585 358.592 456.885 312.492C415.685 270.092 415.085 309.092 415.185 315.692C415.185 316.292 415.385 316.792 415.585 317.292C425.285 335.392 428.685 356.292 425.185 376.492C420.985 397.692 451.285 394.892 453.885 415.792C456.485 436.692 467.085 468.892 465.985 483.692C464.885 498.492 464.785 512.892 464.785 512.892L481.285 513.392L485.185 505.192Z" fill="url(#paint4_linear_108:79)"/>
<path d="M483.142 506.692C483.237 506.392 483.332 505.992 483.427 505.692C484.378 496.092 497.494 357.992 456.434 313.492C417.56 271.292 416.99 309.492 417.18 316.392C417.275 317.192 417.655 317.992 418.035 318.692C420.887 323.092 433.718 342.292 445.123 340.092C476.584 334.192 448.83 373.992 465.939 395.292C479.625 412.092 475.063 470.092 474.017 484.992C473.352 493.392 472.022 501.592 470.026 509.792C469.645 511.892 470.976 513.892 472.877 514.292C472.972 514.292 473.067 514.292 473.162 514.292C473.447 514.292 473.637 514.392 473.922 514.392H476.774C478.485 514.492 480.005 513.592 480.766 511.992L483.142 506.692Z" fill="url(#paint5_linear_108:79)"/>
<path d="M501.085 514.192C501.085 514.192 503.985 473.592 527.685 448.792C534.285 441.992 542.685 437.292 551.885 435.192C558.985 433.592 570.585 427.892 580.685 408.892C580.685 408.892 599.785 381.892 618.885 373.692C637.985 365.492 618.885 364.492 618.885 364.492C618.885 364.492 564.285 374.892 529.285 406.892C527.085 408.892 524.785 410.792 522.285 412.392C513.185 418.592 488.085 441.992 489.185 510.292L501.085 514.192Z" fill="url(#paint6_linear_108:79)"/>
<path d="M548.485 510.892C548.485 510.892 549.285 505.992 542.785 506.092C537.085 506.292 440.685 505.592 440.685 505.592C440.685 505.592 436.185 505.592 436.485 508.992C436.785 512.392 451.385 592.692 452.785 594.392C453.385 595.392 454.385 596.192 455.585 596.492C457.385 596.992 525.085 596.592 525.085 596.592C526.685 596.392 527.885 595.092 527.985 593.492C527.885 593.592 548.685 511.892 548.485 510.892Z" fill="black"/>
<ellipse cx="322.5" cy="271.5" rx="36.5" ry="68.5" fill="url(#paint7_linear_108:79)"/>
<path d="M393.59 594C387.69 584.2 382.99 581.6 368.39 581.2C353.79 580.8 334.39 581 334.39 581L334.19 601.7C334.19 601.7 350.29 611 358.89 615.6C359.39 615.9 360.79 616.7 361.79 617.3C363.29 618 364.89 618.6 366.49 619C374.99 620.8 382.69 619.9 388.19 614.4C394.29 608.3 399.49 603.8 393.59 594Z" fill="#151515"/>
<path d="M283.49 575.6C282.99 576 281.69 577 280.79 577.7C279.59 578.8 278.49 580.1 277.49 581.4C272.69 588.6 270.59 596.1 273.69 603.3C277.09 611.2 279.39 617.8 290.59 615.9C301.79 614 306.09 610.6 311.89 597.3C317.69 584 324.79 565.8 324.69 565.8L305.59 557.9C305.59 557.9 290.99 569.4 283.49 575.6Z" fill="#151515"/>
<path d="M335.69 581.9C335.69 581.9 335.99 602.8 332.59 603.3C329.19 603.8 282.29 597 263.59 596C244.89 595 202.49 582.9 181.69 559.4C163.69 539.1 166.49 516.6 179.79 516.6C193.09 516.6 205.29 505.3 239.09 521.4C272.89 537.5 308.69 540.2 328.79 538.6C348.89 537 405.19 526.6 409.59 523.4C413.99 520.2 435.09 511 464.49 514.2C493.89 517.4 479.99 540.7 473.79 549.7C465.09 562.2 444.49 575.6 427.29 576.2C410.09 576.8 335.69 581.9 335.69 581.9Z" fill="url(#paint8_linear_108:79)"/>
<path d="M404.89 332.7C389.49 318.6 384.29 315.2 370.79 320C357.29 324.8 350.69 329.2 332.29 332.2C320.99 334.2 309.29 332.7 298.79 328.1L260.89 331.9C256.09 331.3 202.19 432.5 200.89 453.5C200.09 466.4 229.39 486.3 237.59 488.3C240.89 489.1 246.79 457.3 248.69 454.4L236.39 450.6C238.59 445.1 245.99 431.5 250.89 424.2C252.39 421.9 264.09 402.6 265.69 395.2C265.99 395.9 267.69 409.9 269.29 414.4C272.29 422.7 276.39 427.4 276.39 434C276.39 440.6 275.59 466.8 270.79 478.6C265.99 490.4 258.99 517.7 258.99 517.7L380.19 517C380.19 517 375.79 464.9 377.59 447C377.59 447 375.69 439.8 379.29 429.4C385.19 412.2 386.89 386.6 385.89 382.6C384.39 376.3 421.49 429.6 429.59 443.1C432.99 448.7 386.89 458.6 383.09 462.9C379.09 467.4 386.99 479.6 386.99 479.6C386.99 479.6 467.39 469.8 466.99 457.5C466.59 445.2 422.79 349 404.89 332.7Z" fill="white" stroke="#151515"/>
<path d="M310.59 187.6C310.59 187.6 288.09 188.5 281.59 212.1C275.09 235.7 274.19 268.6 273.99 273.7C273.79 279.1 276.29 310.7 264.19 323.9C253.79 335.3 257.99 346.3 255.39 355.4L254.19 370.5C254.39 372.3 255.69 373.8 257.39 374.4C258.99 374.9 264.59 372.3 265.59 371.9C279.59 366.3 279.59 361.8 284.89 357.3C289.29 353.6 301.39 345 304.99 341.6C308.59 338.2 311.09 335.2 311.29 330.9C311.99 309 308.19 288.8 303.39 278.1C298.59 267.4 289.39 249.3 297.09 237.3C304.79 225.3 318.69 213.3 319.49 210.3C320.29 207.3 320.69 221.9 329.19 227C337.69 232.1 344.79 239.2 347.39 246.1C349.59 251.9 352.49 261.8 344.49 278.9C336.49 296 329.99 318 341.29 334.3C352.59 350.6 376.39 368.2 380.29 376.4C384.69 385.5 380.49 406.9 379.69 419.8C378.89 432.7 404.89 397.4 404.09 380.6C403.29 363.8 406.09 356.6 389.99 330.8C373.89 305 363.39 260.8 362.99 250.1C362.59 239.4 357.79 209.7 348.09 201.2C339.69 194 337.89 187 320.69 187C317.29 187 313.89 187.2 310.59 187.6Z" fill="black"/>
<path opacity="0.07" d="M259.29 545.2L372.89 545.8C372.89 545.8 359.59 556.2 353.19 557.4C346.79 558.6 319.39 572.2 309.19 567C301.99 563.1 259.29 545.2 259.29 545.2Z" fill="black"/>
<path opacity="0.07" d="M322.59 290.1C322.59 290.1 333.19 292.8 337.59 286.6C347.49 272.6 338.49 293.7 338.49 293.7C338.49 293.7 335.59 301.9 335.79 306C335.99 310.1 324.39 290.7 322.59 290.1Z" fill="black"/>
<path opacity="0.07" d="M280.19 362.1C278.89 363.7 276.99 365 275.99 369.1C274.29 375.7 272.49 383.1 267.89 389.9C265.19 393.9 266.69 409.4 271.19 419.2C272.49 422 276.49 429.3 276.39 431L276.09 445.2H288.29C288.29 445.2 298.69 446.3 296.49 437.7C294.59 430.1 284.69 401.8 291.39 395.6C303.99 384.1 288.09 361.1 293.99 353.7C299.09 347.3 306.39 342.7 306.39 340.6C306.39 339.8 304.49 342.4 303.19 343.3C300.69 345.1 299.39 346.5 297.29 347.9C294.99 349.4 291.49 351.9 289.19 353.6C285.89 356.1 282.89 358.9 280.19 362.1Z" fill="black"/>
<path d="M232.69 453.2C232.69 453.2 232.59 445.8 239.89 445.5C247.19 445.2 401.79 445.4 401.79 445.4C401.79 445.4 408.59 446.2 408.79 451.7C408.99 457.2 408.99 538.9 408.99 538.9C408.99 538.9 409.09 545.2 402.39 545.4C395.69 545.6 238.09 545.6 238.09 545.6C238.09 545.6 232.19 544.1 232.29 538.2C232.39 532.3 232.69 453.2 232.69 453.2Z" fill="#EDEDED" stroke="#151515"/>
<circle cx="321.29" cy="495.5" r="6.7" fill="black"/>
<path d="M107.5 571.5V194.5C111.667 132.833 154.5 1 292.5 1C430.5 1 476.333 82.6667 482 123.5" stroke="black" stroke-width="2" stroke-linecap="round"/>
<rect x="65" y="573" width="91" height="19" rx="9.5" fill="black"/>
<path d="M516 136C516 130.353 514.888 124.762 512.727 119.545C510.566 114.328 507.399 109.587 503.406 105.594C499.413 101.601 494.672 98.4341 489.455 96.2732C484.238 94.1122 478.647 93 473 93C467.353 93 461.762 94.1122 456.545 96.2732C451.328 98.4341 446.587 101.601 442.594 105.594C438.601 109.587 435.434 114.328 433.273 119.545C431.112 124.762 430 130.353 430 136L473 136H516Z" fill="black"/>
<defs>
<linearGradient id="paint0_linear_108:79" x1="476.071" y1="117.972" x2="455.789" y2="133.101" gradientUnits="userSpaceOnUse">
<stop stop-color="#58CAEA"/>
<stop offset="1" stop-color="#4B45BD"/>
</linearGradient>
<linearGradient id="paint1_linear_108:79" x1="421.636" y1="376.722" x2="326.801" y2="456.423" gradientUnits="userSpaceOnUse">
<stop stop-color="#E5A4ED"/>
<stop offset="1" stop-color="#7A5BF5"/>
</linearGradient>
<linearGradient id="paint2_linear_108:79" x1="423.329" y1="389.094" x2="336.227" y2="460.371" gradientUnits="userSpaceOnUse">
<stop stop-color="#E5A4ED"/>
<stop offset="1" stop-color="#7A5BF5"/>
</linearGradient>
<linearGradient id="paint3_linear_108:79" x1="585.865" y1="418.152" x2="524.771" y2="486.991" gradientUnits="userSpaceOnUse">
<stop stop-color="#E5A4ED"/>
<stop offset="1" stop-color="#7A5BF5"/>
</linearGradient>
<linearGradient id="paint4_linear_108:79" x1="459.118" y1="270.756" x2="386.774" y2="288.616" gradientUnits="userSpaceOnUse">
<stop stop-color="#E5A4ED"/>
<stop offset="1" stop-color="#7A5BF5"/>
</linearGradient>
<linearGradient id="paint5_linear_108:79" x1="458.726" y1="271.686" x2="389.874" y2="287.76" gradientUnits="userSpaceOnUse">
<stop stop-color="#E5A4ED"/>
<stop offset="1" stop-color="#7A5BF5"/>
</linearGradient>
<linearGradient id="paint6_linear_108:79" x1="572.412" y1="349.383" x2="473.763" y2="417.326" gradientUnits="userSpaceOnUse">
<stop stop-color="#E5A4ED"/>
<stop offset="1" stop-color="#7A5BF5"/>
</linearGradient>
<linearGradient id="paint7_linear_108:79" x1="330.076" y1="189.432" x2="264.114" y2="215.649" gradientUnits="userSpaceOnUse">
<stop stop-color="#F19744"/>
<stop offset="1" stop-color="#F87C56"/>
</linearGradient>
<linearGradient id="paint8_linear_108:79" x1="357.871" y1="503.604" x2="314.839" y2="614.715" gradientUnits="userSpaceOnUse">
<stop stop-color="#58CAEA"/>
<stop offset="1" stop-color="#4B45BD"/>
</linearGradient>
</defs>
</svg>
