<svg width="39" height="40" viewBox="0 0 39 40" fill="none" xmlns="http://www.w3.org/2000/svg">
<path d="M19.2 0C8.59601 0 0 8.86661 0 19.8044C0 30.7423 8.59601 39.6089 19.2 39.6089C29.804 39.6089 38.4 30.7423 38.4 19.8044C38.4 8.86661 29.804 0 19.2 0ZM18.094 28.3059C16.888 28.9104 15.59 28.9743 15.088 28.9743H14.938H14.83C14.046 28.9743 10.144 28.7886 10.144 25.1228C10.144 21.5208 14.394 21.2382 15.696 21.2382H15.73C14.978 20.2026 15.134 19.1587 15.134 19.1587C15.0408 19.1644 14.9474 19.1671 14.854 19.167C14.364 19.167 13.418 19.0865 12.606 18.546C11.61 17.8859 11.106 16.7616 11.106 15.2061C11.106 10.8099 15.76 10.6325 15.806 10.6284H20.454V10.7336C20.454 11.27 19.52 11.3752 18.884 11.4639C18.668 11.4969 18.234 11.5402 18.112 11.6042C19.29 12.254 19.48 13.2731 19.48 14.7914C19.48 16.5202 18.824 17.4341 18.128 18.0757C17.696 18.4738 17.358 18.7853 17.358 19.2041C17.358 19.6147 17.822 20.0334 18.362 20.5224C19.244 21.3248 20.454 22.4162 20.454 24.2584C20.454 26.1625 19.66 27.524 18.094 28.3059ZM28.2 19.8044H25.2V22.8989H23.2V19.8044H20.2V17.7415H23.2V14.647H25.2V17.7415H28.2V19.8044ZM15.646 22.1768C15.5412 22.1769 15.4365 22.181 15.332 22.1892C14.4825 22.2397 13.6734 22.5801 13.032 23.1568C12.444 23.7055 12.144 24.3987 12.186 25.098C12.276 26.5648 13.802 27.423 15.656 27.2868C17.48 27.1507 18.696 26.0655 18.608 24.5988C18.524 23.2207 17.362 22.1768 15.646 22.1768ZM17.394 14.2035C16.91 12.45 16.13 11.9301 14.918 11.9301C14.7869 11.9311 14.6564 11.9498 14.53 11.9858C14.004 12.1405 13.586 12.5923 13.354 13.2649C13.116 13.9456 13.102 14.6553 13.306 15.464C13.676 16.9101 14.672 17.9581 15.676 17.9581C15.8073 17.9594 15.9381 17.9406 16.064 17.9024C17.162 17.5847 17.85 15.8559 17.394 14.2035Z" fill="#5C11D5"/>
</svg>
