<svg width="40" height="41" viewBox="0 0 40 41" fill="none" xmlns="http://www.w3.org/2000/svg">
<path d="M19.9998 0.825195C9.39581 0.825195 0.799805 9.69181 0.799805 20.6296C0.799805 31.5675 9.39581 40.4341 19.9998 40.4341C30.6038 40.4341 39.1998 31.5675 39.1998 20.6296C39.1998 9.69181 30.6038 0.825195 19.9998 0.825195ZM15.2998 28.8382H11.4118V15.9323H15.2998V28.8382ZM13.3318 14.3479C12.1038 14.3479 11.3098 13.4505 11.3098 12.3407C11.3098 11.2081 12.1278 10.3375 13.3818 10.3375C14.6358 10.3375 15.4038 11.2081 15.4278 12.3407C15.4278 13.4505 14.6358 14.3479 13.3318 14.3479ZM29.4998 28.8382H25.6118V21.6859C25.6118 20.0211 25.0478 18.8906 23.6418 18.8906C22.5678 18.8906 21.9298 19.6559 21.6478 20.3924C21.5438 20.6544 21.5178 21.0257 21.5178 21.395V28.8361H17.6278V20.0479C17.6278 18.4367 17.5778 17.0896 17.5258 15.9302H20.9038L21.0818 17.7229H21.1598C21.6718 16.8812 22.9258 15.6393 25.0238 15.6393C27.5818 15.6393 29.4998 17.4073 29.4998 21.2073V28.8382Z" fill="#5C11D5"/>
</svg>
