<svg width="957" height="634" viewBox="0 0 957 634" fill="none" xmlns="http://www.w3.org/2000/svg">
<ellipse opacity="0.8" rx="453.5" ry="47" transform="matrix(-1 0 0 1 477.5 587)" fill="#DED8EE"/>
<path d="M173.953 521.01C173.953 521.01 162.173 456.877 224.293 422.545C286.412 388.214 289.332 388.616 301.615 384.69C308.662 382.274 315.911 387.308 307.756 397.577C299.601 407.846 304.232 410.464 287.922 414.994C271.612 419.525 269.095 439.46 260.94 444.393C252.785 449.326 245.637 450.635 220.668 461.408C198.015 471.174 178.685 498.76 178.685 508.526C178.685 518.292 156.535 521.514 156.535 521.514L173.953 521.01Z" fill="url(#paint0_linear_108:2)"/>
<path d="M176.168 522.117C176.168 522.117 160.361 463.119 214.728 431.204C269.095 399.288 288.124 399.691 298.896 395.865C305.038 393.65 288.124 401.302 281.076 410.766C274.028 420.23 275.74 418.115 262.954 425.163C248.154 433.318 242.012 441.272 233.354 442.882C220.769 445.299 224.494 458.387 202.647 468.254C182.913 477.214 180.396 501.176 180.396 510.237C180.396 519.298 161.066 522.319 161.066 522.319L176.168 522.117Z" fill="url(#paint1_linear_108:2)"/>
<path d="M121.398 503.391L115.256 497.551C112.337 494.833 108.712 492.819 104.786 491.812C85.556 486.778 25.1482 467.851 0.0789185 422.142C-0.122437 421.739 0.0789032 421.236 0.481628 421.035H0.582321C0.682999 421.035 0.783676 420.934 0.884354 420.934C9.24077 420.33 52.231 419.625 109.719 468.656C110.726 469.461 111.733 470.468 112.538 471.475C113.948 473.489 116.364 476.912 117.471 478.724C118.982 481.342 115.961 485.772 119.988 489.698C124.016 493.625 132.674 503.391 132.674 503.391L125.626 508.626L121.398 503.391Z" fill="url(#paint2_linear_108:2)"/>
<path d="M154.119 499.565C154.119 499.565 137.607 351.968 182.611 305.555C224.091 262.867 224.695 302.132 224.595 308.777C224.595 309.381 224.393 309.884 224.192 310.388C214.426 328.611 211.003 349.653 214.527 369.99C218.755 391.334 188.249 388.515 185.632 409.557C183.014 430.599 172.342 463.018 173.449 477.919C174.557 492.819 174.657 507.317 174.657 507.317L158.045 507.821L154.119 499.565Z" fill="url(#paint3_linear_108:2)"/>
<path d="M156.175 501.075C156.079 500.773 155.984 500.37 155.888 500.068C154.931 490.403 141.725 351.364 183.065 306.562C222.203 264.075 222.777 302.535 222.585 309.482C222.49 310.287 222.107 311.092 221.724 311.797C218.853 316.227 205.935 335.558 194.452 333.343C162.778 327.402 190.72 367.473 173.495 388.918C159.716 405.832 164.309 464.226 165.361 479.227C166.031 487.685 167.371 495.94 169.381 504.196C169.763 506.31 168.424 508.324 166.51 508.727C166.414 508.727 166.318 508.727 166.223 508.727C165.936 508.727 165.744 508.827 165.457 508.827H162.586C160.864 508.928 159.333 508.022 158.567 506.411L156.175 501.075Z" fill="url(#paint4_linear_108:2)"/>
<path d="M138.111 508.626C138.111 508.626 135.191 467.75 111.33 442.782C104.685 435.936 96.2278 431.204 86.9653 429.089C79.817 427.478 68.1382 421.74 57.9695 402.611C57.9695 402.611 38.7397 375.427 19.5099 367.171C0.28006 358.916 19.5099 357.909 19.5099 357.909C19.5099 357.909 74.481 368.38 109.719 400.597C111.934 402.611 114.249 404.524 116.766 406.134C125.928 412.377 151.199 435.936 150.091 504.7L138.111 508.626Z" fill="url(#paint5_linear_108:2)"/>
<path d="M90.3886 505.303C90.3886 505.303 89.5832 500.37 96.1273 500.471C101.866 500.672 198.921 499.967 198.921 499.967C198.921 499.967 203.452 499.967 203.15 503.39C202.848 506.814 188.149 587.659 186.739 589.371C186.135 590.378 185.128 591.183 183.92 591.485C182.108 591.989 113.948 591.586 113.948 591.586C112.337 591.384 111.129 590.076 111.028 588.465C111.129 588.565 90.1872 506.31 90.3886 505.303Z" fill="black"/>
<path d="M90.3886 505.303C90.3886 505.303 89.5832 500.37 96.1273 500.471C101.866 500.672 198.921 499.967 198.921 499.967C198.921 499.967 203.452 499.967 203.15 503.39C202.848 506.814 188.149 587.659 186.739 589.371C186.135 590.378 185.128 591.183 183.92 591.485C182.108 591.989 113.948 591.586 113.948 591.586C112.337 591.384 111.129 590.076 111.028 588.465C111.129 588.565 90.1872 506.31 90.3886 505.303" stroke="#151515" stroke-width="3.10032"/>
<rect width="333.782" height="211.245" rx="16.3321" transform="matrix(-0.991814 0.127691 0.127691 0.991814 594.927 48.3271)" fill="#E5E5E5" stroke="#151515" stroke-opacity="0.9" stroke-width="2.44982"/>
<rect width="102.24" height="9.77291" rx="4.88645" transform="matrix(-0.991814 0.127691 0.127691 0.991814 593.559 208.433)" fill="white" stroke="#151515" stroke-opacity="0.9" stroke-width="2.44982"/>
<rect width="73.6727" height="9.77291" rx="4.88645" transform="matrix(-0.991814 0.127691 0.127691 0.991814 595.959 227.073)" fill="white" stroke="#151515" stroke-opacity="0.9" stroke-width="2.44982"/>
<path d="M643.765 562.449C648.9 563.456 666.821 557.919 669.841 555.1C670.848 554.194 671.654 551.576 672.459 550.468C673.164 546.945 674.875 548.757 676.587 548.455C681.721 547.347 695.615 543.723 702.159 547.247C703.368 549.965 703.468 552.583 704.274 554.093C705.985 560.939 707.093 567.987 707.798 575.034C708.301 579.364 705.18 583.189 700.951 583.693C700.951 583.693 700.951 583.693 700.851 583.693H700.75C699.34 583.793 697.83 583.693 696.32 583.491C685.245 580.773 662.794 580.068 654.135 576.645C639.637 572.819 631.382 565.168 643.765 562.449Z" fill="#151515"/>
<path d="M471.502 570.605C476.536 571.914 494.86 567.484 497.981 564.866C499.089 564.061 499.995 561.544 500.901 560.436C501.807 557.013 503.418 558.826 505.129 558.624C510.365 557.819 524.46 555 530.803 558.926C531.91 561.645 531.709 564.363 532.414 565.873C533.622 572.82 534.427 579.968 534.629 587.016C534.83 591.345 531.507 594.97 527.178 595.272C527.178 595.272 527.178 595.272 527.078 595.272H526.977C525.567 595.372 524.057 595.171 522.648 594.869C511.774 591.446 489.423 589.432 480.966 585.405C466.77 580.673 458.917 572.518 471.502 570.605Z" fill="#151515"/>
<path d="M702.763 547.448C694.004 548.656 672.962 548.958 672.962 548.958C672.962 548.958 671.653 538.689 665.21 518.956C658.666 498.921 625.743 436.096 625.743 436.096C618.998 425.827 611.95 404.584 611.95 404.584L602.084 323.235C602.084 323.235 550.032 404.483 550.737 422.907C551.442 441.332 538.555 513.418 538.555 513.418C537.246 524.191 530.803 559.832 530.803 559.832C521.137 558.624 511.371 558.422 501.605 559.026C502.914 544.226 508.25 483.517 508.25 483.517C508.25 483.517 511.573 436.398 512.277 407.705C512.982 379.011 533.42 318.503 547.213 290.816C549.026 286.084 550.536 281.352 551.744 276.418L614.411 280.393L673.466 291.822C670.747 299.575 668.532 307.428 666.921 315.482C659.773 351.425 654.739 411.833 654.739 411.833C673.768 433.378 685.749 473.952 685.749 473.952C693.501 498.316 702.763 547.448 702.763 547.448Z" fill="url(#paint6_linear_108:2)"/>
<path d="M586.378 187.217C601.581 173.424 611.246 130.434 616.079 119.661C620.911 108.888 628.664 105.868 631.684 104.66C633.194 104.055 641.551 101.74 647.793 99.9276L602.487 71.4352C596.345 59.8571 608.427 52.9102 608.427 52.9102L659.975 78.4828V95.9004L676.688 93.182L696.622 89.2555C702.764 87.846 709.006 86.8392 715.248 86.3358C717.866 86.1345 720.483 86.4365 723 87.3426L724.309 87.846C727.43 88.9535 730.048 91.1684 731.558 94.1888C734.78 101.236 736.995 108.787 738.002 116.439C739.915 128.823 730.35 156.912 720.584 177.35C716.356 186.009 699.844 230.509 695.716 241.685C675.58 288.4 674.171 292.024 674.171 292.024C654.684 289.958 652.67 288.448 615.922 283.917C579.174 279.387 551.99 276.366 551.99 276.366C549.171 271.232 559.497 257.592 559.497 257.592L540.77 273.097C532.615 275.714 525.87 257.491 525.87 257.491C525.87 257.491 573.592 198.795 586.378 187.217Z" fill="url(#paint7_linear_108:2)"/>
<path d="M567.45 48.8816C586.176 45.3578 605.406 52.0027 605.406 52.0027L609.377 53.8628C609.377 53.8628 602.129 59.1802 602.33 61.9172C602.53 64.6542 602.33 71.4817 602.33 71.4817C597.396 69.7702 595.539 69.3196 591.109 69.6216C587.787 69.4202 579.934 71.0311 576.209 68.0107C573.39 66.7019 572.886 64.3863 567.148 58.7482C563.02 54.2176 564.228 52.9088 562.617 52.3047C560.503 51.3986 562.315 49.2843 567.45 48.8816Z" fill="black" stroke="#151515" stroke-width="1.03344"/>
<path d="M500.643 274.855C500.845 273.848 505.576 274.755 506.181 273.848C510.107 268.311 514.291 262.122 524.157 258.799C526.977 257.893 522.893 258.042 525.813 257.74L540.915 273.345C540.11 275.359 533.867 279.889 533.867 279.889C533.867 279.889 523.855 286.99 508.351 284.976C504.726 284.573 500.14 278.58 500.643 274.855Z" fill="black" stroke="#151515" stroke-width="1.03344"/>
<path d="M639.738 18.5773C641.953 18.5773 688.669 54.6206 689.071 58.6478C689.172 60.7621 689.273 69.9239 690.884 75.9647C692.394 81.6028 696.924 89.6571 696.924 89.6571C696.924 89.6571 692.897 97.2081 682.426 98.7183C675.141 99.7382 666.064 98.2806 661.603 97.3968C659.898 97.0592 647.636 100.176 647.636 100.176C647.636 100.176 660.614 98.3753 660.221 95.1417C659.517 89.354 660.993 76.2943 658.163 74.6559C654.84 72.7429 653.833 74.7565 642.356 65.0913C630.878 55.426 634.604 31.0616 634.906 29.4507C635.208 27.8398 637.523 18.5773 639.738 18.5773Z" fill="url(#paint8_linear_108:2)"/>
<path d="M697.83 20.6921C696.823 18.8799 694.608 14.752 693.3 13.2418C691.085 10.9262 688.668 8.71124 686.151 6.59697C683.836 5.18745 678.097 2.26774 675.882 1.05959C668.029 -1.35673 657.558 1.05959 649.907 1.4623C642.96 0.958906 637.825 9.61736 635.107 15.3561C632.388 21.0948 637.624 20.3901 637.12 24.82C637.02 25.6254 639.335 26.8336 641.349 27.9411C643.363 29.0485 649.101 38.2104 651.115 42.5396C653.229 31.9683 660.277 50.7953 658.968 53.111C661.787 54.9232 665.21 62.5749 670.244 64.9912C673.768 63.481 680.312 57.6416 689.071 59.2524C689.675 57.6416 698.334 51.1981 699.24 40.3247C699.945 37.1029 700.649 25.5247 697.83 20.6921Z" fill="black"/>
<path opacity="0.07" d="M671.15 68.2133C671.15 68.2133 663.297 75.2608 658.565 75.0595L659.774 80.9996L659.472 89.5574C659.472 89.5574 662.492 84.7247 666.318 79.7914C668.734 76.3683 670.446 72.4418 671.15 68.2133Z" fill="black"/>
<path opacity="0.07" d="M642.658 154.697C642.658 154.697 632.791 184.397 602.386 215.306C571.981 246.215 564.631 252.658 564.631 252.658C564.631 252.658 558.389 260.511 560.403 265.747C562.416 270.982 575.706 253.464 605.507 239.872C622.522 232.12 628.361 218.729 636.214 200.003C646.081 176.343 648.296 171.309 649.605 162.852C652.927 140.702 642.658 154.697 642.658 154.697Z" fill="black"/>
<path opacity="0.07" d="M602.184 323.134C602.184 323.134 616.582 354.244 620.709 369.446C624.938 385.152 624.938 408.007 637.624 419.082C652.021 431.666 668.935 473.952 672.861 482.912C678.399 495.699 689.776 566.175 686.453 571.108C683.231 575.94 670.244 568.692 670.244 568.692C670.244 568.692 674.976 550.771 670.949 534.561C666.921 518.352 647.994 475.059 636.113 453.615C625.341 434.385 614.367 412.135 611.95 399.248C609.534 386.361 602.184 323.134 602.184 323.134Z" fill="black"/>
<path d="M940.848 542.819H733.737C733.737 542.819 725.999 542.414 725.999 533.476V515.856H949.007V537.345C947.892 540.755 944.608 542.999 940.997 542.819" stroke="#151515" stroke-width="1.48321"/>
<path d="M948.871 381.188L949.007 522.599H725.999L726.077 377.109C726.077 377.109 724.718 368.951 733.399 368.951H940.462C940.462 368.951 949.822 368.951 948.871 381.31" fill="white"/>
<path d="M948.871 381.188L949.007 522.599H725.999L726.077 377.109C726.077 377.109 724.718 368.951 733.399 368.951H940.462C940.462 368.951 949.822 368.951 948.871 381.31" stroke="#151515" stroke-width="1.48321"/>
<path d="M855.084 542.829L822.331 542.751V577.464L855.084 580.88V542.829Z" stroke="#151515" stroke-width="1.48321"/>
<path d="M907.103 577.026L771.357 577.067L771.276 583.769H907.103V577.026Z" fill="black"/>
<path d="M838.466 526.453C835.837 526.453 833.466 528.037 832.459 530.466C831.453 532.896 832.009 535.693 833.869 537.553C835.728 539.412 838.525 539.969 840.955 538.962C843.385 537.956 844.969 535.585 844.969 532.955C844.969 529.364 842.058 526.453 838.466 526.453Z" fill="url(#paint9_linear_108:2)"/>
<rect width="211.929" height="15.8947" rx="7.94734" transform="matrix(-1 0 0 1 942.264 378.102)" stroke="#151515" stroke-width="1.48321"/>
<path d="M857.388 108.726L883.565 85.0664L899.674 87.5834L913.265 125.842L899.674 190.277H869.47L851.851 168.631L857.388 108.726Z" fill="url(#paint10_linear_108:2)"/>
<path d="M931.667 382.919C929.805 382.919 928.295 384.428 928.295 386.291C928.295 388.153 929.805 389.662 931.667 389.662C933.529 389.662 935.039 388.153 935.039 386.291C935.039 384.428 933.529 382.919 931.667 382.919Z" fill="url(#paint11_linear_108:2)"/>
<path d="M931.667 382.919C929.805 382.919 928.295 384.428 928.295 386.291C928.295 388.153 929.805 389.662 931.667 389.662C933.529 389.662 935.039 388.153 935.039 386.291C935.039 384.428 933.529 382.919 931.667 382.919" stroke="#151515" stroke-width="1.48321"/>
<path d="M920.589 382.919C918.727 382.919 917.217 384.428 917.217 386.291C917.217 388.153 918.727 389.662 920.589 389.662C922.451 389.662 923.96 388.153 923.96 386.291C923.96 385.396 923.605 384.539 922.973 383.906C922.341 383.274 921.483 382.919 920.589 382.919Z" fill="url(#paint12_linear_108:2)"/>
<path d="M920.589 382.919C918.727 382.919 917.217 384.428 917.217 386.291C917.217 388.153 918.727 389.662 920.589 389.662C922.451 389.662 923.96 388.153 923.96 386.291C923.96 385.396 923.605 384.539 922.973 383.906C922.341 383.274 921.483 382.919 920.589 382.919" stroke="#151515" stroke-width="1.48321"/>
<path d="M909.029 382.919C907.167 382.919 905.658 384.428 905.658 386.291C905.658 388.153 907.167 389.662 909.029 389.662C910.891 389.662 912.401 388.153 912.401 386.291C912.401 384.428 910.891 382.919 909.029 382.919Z" fill="url(#paint13_linear_108:2)"/>
<path d="M909.029 382.919C907.167 382.919 905.658 384.428 905.658 386.291C905.658 388.153 907.167 389.662 909.029 389.662C910.891 389.662 912.401 388.153 912.401 386.291C912.401 384.428 910.891 382.919 909.029 382.919" stroke="#151515" stroke-width="1.48321"/>
<path d="M860.904 425.184C861.007 426.933 862.525 428.274 864.307 428.191H904.464C906.533 428.191 908.548 426.855 908.548 425.184V419.184C908.548 417.514 906.574 416.164 904.464 416.164H864.389C862.603 416.018 861.029 417.312 860.864 419.064C860.864 419.064 860.864 419.144 860.864 419.184L860.904 425.184Z" stroke="#151515" stroke-width="1.48321"/>
<path d="M764.532 466.384C764.592 467.299 765.013 468.153 765.703 468.758C766.394 469.363 767.297 469.669 768.214 469.61H904.472C906.564 469.61 908.548 468.173 908.548 466.384V436.245C908.548 434.456 906.55 433.019 904.472 433.019H768.228C767.311 432.956 766.406 433.259 765.713 433.861C765.02 434.464 764.595 435.316 764.532 436.231V466.384Z" fill="url(#paint14_linear_108:2)" stroke="#151515" stroke-width="1.48321"/>
<path d="M863.754 494.237C863.754 495.119 864.104 495.964 864.728 496.586C865.352 497.208 866.198 497.556 867.079 497.552H904.475C906.579 497.552 908.548 496.071 908.548 494.251V477.729C908.548 475.921 906.539 474.44 904.475 474.44H867.31C866.432 474.381 865.568 474.675 864.907 475.256C864.247 475.838 863.847 476.66 863.794 477.538C863.794 477.538 863.794 477.661 863.794 477.729L863.754 494.237Z" fill="url(#paint15_linear_108:2)" stroke="#151515" stroke-width="1.48321"/>
<path d="M814.143 494.237C814.136 495.111 814.477 495.953 815.091 496.575C815.705 497.197 816.541 497.549 817.414 497.552H854.865C856.982 497.552 858.937 496.071 858.937 494.25V477.727C858.937 475.92 856.901 474.439 854.865 474.439H817.659C815.848 474.331 814.293 475.711 814.184 477.523C814.184 477.591 814.184 477.659 814.184 477.727L814.143 494.237Z" fill="url(#paint16_linear_108:2)" stroke="#151515" stroke-width="1.48321"/>
<path d="M764.532 494.241C764.649 496.181 766.314 497.659 768.251 497.543H805.417C807.399 497.685 809.133 496.22 809.326 494.241V477.731C809.126 475.757 807.394 474.3 805.417 474.442H768.265C767.334 474.383 766.418 474.696 765.718 475.313C765.018 475.929 764.591 476.799 764.532 477.731V494.241Z" fill="url(#paint17_linear_108:2)" stroke="#151515" stroke-width="1.48321"/>
<path d="M872.525 531.648L852.751 412.987C852.751 412.987 829.142 438.791 816.054 451.981C802.965 465.17 784.41 491.538 784.41 491.538L776.013 484.339C776.013 484.339 832.464 370.732 835.414 362.939C838.364 355.147 834.035 349.499 831.679 340.508C829.323 331.517 840.317 317.926 849.278 315.992C858.238 314.059 916.653 309.146 916.653 309.146C916.653 309.146 916.884 305.441 933.285 316.083C952.485 328.547 960.378 363.03 931.342 369.252C897.242 376.561 895.299 372.897 895.299 372.897C895.299 372.897 883.318 471.19 886.912 494.558C890.506 517.926 885.11 531.648 885.11 531.648H872.525Z" fill="black" stroke="#151515" stroke-width="1.03344"/>
<path d="M872.525 531.649H885.11C885.11 531.649 887.718 542.945 889.228 548.502C889.319 548.855 889.298 548.845 889.5 549.509C889.664 552.278 889.68 555.054 889.55 557.825C889.268 562.859 885.09 571.669 880.59 573.934C875.646 576.441 874.468 576.048 869.193 566.766C865.669 560.554 865.407 559.023 866.434 552.54C867.773 544.042 872.133 533.259 872.133 533.259" fill="#151515"/>
<path d="M777.071 482.527L784.954 491.376C784.954 491.376 781.43 501.656 779.416 506.992C779.286 507.334 778.994 508.23 778.772 508.865C778.394 509.766 777.918 510.624 777.353 511.422C774.332 515.499 770.597 518.147 766.117 517.885C761.173 517.604 757.156 517.694 756.049 511.17C754.941 504.646 756.049 501.676 762.241 495.796C768.432 489.917 777.051 482.507 777.051 482.507" fill="#151515"/>
<path d="M901.42 190.143C901.521 190.445 913.905 196.285 919.241 202.829C924.577 209.373 928.906 218.837 928.906 218.837C928.906 218.837 931.734 221.941 939.145 236.557C946.556 251.173 958.052 262.884 955.757 271.795C953.462 280.706 932.601 297.971 929.077 301.999C928.115 303.098 924.835 306.888 921.041 311.048C915.997 316.58 910.045 322.766 907.431 324.148C902.851 326.569 894.091 322.641 893.839 320.624C893.64 319.03 896.148 315.377 899.916 310.748C909.247 299.284 926.301 281.831 929.077 274.815C932.974 264.966 929.064 263.166 921.526 250.652C913.987 238.138 912.364 224.576 909.948 230.013C909.142 231.825 914.829 257.017 915.988 264.747C917.148 272.478 916.974 276.333 917.499 280.352C918.023 284.372 918.81 288.955 918.81 288.955C918.81 288.955 904.208 305.49 904.247 305.606L899.916 310.748L890.315 311.563L845.009 316.094C845.009 316.094 843.6 272.097 842.492 260.217C841.385 248.336 836.885 222.663 834.871 218.837C832.858 215.011 829.434 266.962 829.938 277.634C830.341 285.084 824.16 360.344 822.247 361.955C819.247 361.455 811.247 360.455 811.247 360.455C811.247 360.455 811.513 279.95 811.815 271.795C812.118 263.64 811.614 197.694 822.387 185.814C833.16 173.934 836.079 174.236 845.04 177.357C854 180.478 858.43 183.499 870.612 185.512C878.063 186.821 885.815 185.814 892.762 182.794C890.849 175.847 894.876 187.626 894.373 184.405" fill="url(#paint18_linear_108:2)"/>
<path opacity="0.07" d="M871.296 174.839C867.778 172.504 864.437 169.913 861.299 167.087C858.057 163.845 865.527 181.182 864.813 183.669C864.098 186.156 871.296 174.839 871.296 174.839Z" fill="black"/>
<path opacity="0.1" d="M835.757 220.316C838.214 232.338 838.677 237.472 841.989 253.672C845.301 269.871 845.009 316.093 845.009 316.093L871.186 314.079C871.186 314.079 874.136 297.387 865.518 285.255C856.9 273.123 857.464 273.405 857.464 266.488C857.464 259.571 859.819 251.809 856.286 245.96C852.752 240.11 835.757 220.316 835.757 220.316Z" fill="black"/>
<path opacity="0.1" d="M882.814 527.007L880.64 526.212L872.585 431.955C872.233 425.542 872.646 424.415 867.159 420.297C861.671 416.179 859.418 417.828 857.594 415.766C855.77 413.704 848.367 419.426 855.58 407.208C862.794 394.991 873.139 381.062 873.139 381.062C873.773 379.803 873.28 380.438 877.166 374.105L879.18 371.175C880.403 369.326 881.87 367.65 883.539 366.191C888.915 361.58 895.963 356.224 900.081 356.224L925.543 355.983C925.543 355.983 933.325 356.184 933.325 361.208C933.325 366.232 909.887 370.944 903.121 371.427C896.356 371.91 893.607 371.809 891.805 390.334C887.888 430.606 887.838 447.722 885.764 488.145C885.633 490.762 887.103 502.643 887.345 507.073C887.486 509.6 887.345 522.044 886.268 527.601C886.529 526.524 883.891 527.208 882.814 527.007Z" fill="black"/>
<path opacity="0.1" d="M892.309 333.984C892.309 333.984 867.139 338.454 853.044 346.65C840.771 353.768 837.156 362.467 836.935 363.634C836.351 366.655 837.77 359.064 835.696 352.66C833.622 346.257 858.702 336.652 858.702 336.652L892.309 333.984Z" fill="black"/>
<path fill-rule="evenodd" clip-rule="evenodd" d="M821.852 362.469C821.852 362.469 811.784 359.448 797.689 360.959C783.594 362.469 789.131 368.51 802.723 368.51C816.315 368.51 821.852 365.489 821.852 365.489V362.469Z" fill="black" stroke="#151515" stroke-width="1.03344"/>
<path fill-rule="evenodd" clip-rule="evenodd" d="M920.552 311.584C920.552 311.584 916.234 308.975 910.015 305.636C903.797 302.297 906.039 303.971 911.991 307.271C917.943 310.57 920.46 311.749 920.46 311.749L920.552 311.584Z" stroke="#151515" stroke-width="1.03344"/>
<path d="M889.54 80.4027C889.54 80.4027 905.548 81.0068 910.079 96.6121C914.609 112.217 915.314 134.166 915.415 137.589C915.616 141.213 913.703 165.779 915.717 172.625C917.529 178.666 922.664 189.842 925.785 197.594C926.993 200.614 927.899 203.836 928.503 207.058L928.906 209.675C928.1 212.394 925.181 214.005 922.362 213.099C922.16 212.998 921.959 212.998 921.858 212.897C920.247 212.192 918.737 211.387 917.227 210.481C912.394 207.561 906.253 199.809 901.42 197.393C896.286 194.876 890.446 183.197 889.641 182.291C888.835 181.384 889.137 178.465 889.037 175.646C888.533 161.047 891.252 147.657 894.675 140.609C898.098 133.562 905.951 119.768 900.514 111.815C895.077 103.861 883.701 97.5183 883.197 95.6054C882.694 93.6924 882.392 103.257 876.351 106.68C870.31 110.103 861.853 119.265 861.853 121.279C861.853 123.292 859.839 129.836 865.578 141.213C871.317 152.59 875.848 167.088 867.894 177.961C859.94 188.835 839.905 203.937 838.495 207.36C837.086 210.783 838.495 225.986 838.999 234.543C839.502 243.101 822.789 219.945 823.393 208.769C823.998 197.594 821.984 192.761 833.361 175.746C844.738 158.732 852.188 129.333 852.49 122.185C852.792 115.037 856.215 95.3033 863.061 89.5646C868.901 84.7319 870.209 80 882.392 80C884.808 80 887.224 80.2014 889.54 80.4027Z" fill="black"/>
<ellipse rx="36.7481" ry="68.9656" transform="matrix(-1 0 0 1 371.131 267.075)" fill="url(#paint19_linear_108:2)"/>
<path d="M299.558 591.766C305.498 581.899 310.23 579.282 324.93 578.879C339.629 578.476 359.161 578.678 359.161 578.678L359.362 599.518C359.362 599.518 343.153 608.882 334.494 613.513C333.991 613.815 332.581 614.62 331.574 615.224C330.064 615.929 328.453 616.533 326.843 616.936C318.285 618.748 310.532 617.842 304.995 612.305C298.854 606.163 293.618 601.633 299.558 591.766Z" fill="#151515"/>
<path d="M410.407 573.241C410.91 573.644 412.219 574.651 413.125 575.355C414.333 576.463 415.44 577.772 416.447 579.081C421.28 586.329 423.394 593.88 420.273 601.129C416.85 609.083 414.534 615.728 403.258 613.815C391.982 611.902 387.653 608.479 381.813 595.089C375.974 581.698 368.826 563.374 368.926 563.374L388.156 555.421C388.156 555.421 402.856 566.999 410.407 573.241Z" fill="#151515"/>
<path d="M357.852 579.584C357.852 579.584 357.55 600.626 360.973 601.13C364.396 601.633 411.615 594.787 430.442 593.78C449.269 592.773 491.957 580.591 512.898 556.931C531.021 536.493 528.202 513.841 514.811 513.841C501.421 513.841 489.138 502.464 455.108 518.673C421.079 534.883 385.035 537.601 364.799 535.99C344.562 534.379 287.879 523.909 283.449 520.687C279.019 517.465 257.776 508.202 228.176 511.424C198.576 514.646 212.571 538.104 218.813 547.166C227.572 559.75 248.312 573.242 265.629 573.846C282.946 574.45 357.852 579.584 357.852 579.584Z" fill="url(#paint20_linear_108:2)"/>
<path d="M288.181 328.69C303.686 314.494 308.921 311.071 322.513 315.904C336.105 320.737 342.75 325.166 361.275 328.187C372.651 330.2 384.431 328.69 395.002 324.059L433.16 327.885C437.993 327.281 492.259 429.169 493.568 450.311C494.373 463.299 464.874 483.334 456.618 485.348C453.296 486.153 447.356 454.137 445.443 451.217L457.827 447.392C455.612 441.854 448.161 428.162 443.228 420.812C441.718 418.497 429.938 399.065 428.327 391.615C428.025 392.32 426.314 406.415 424.703 410.946C421.683 419.302 417.555 424.034 417.555 430.679C417.555 437.324 418.36 463.702 423.193 475.582C428.025 487.462 435.073 514.948 435.073 514.948L313.049 514.243C313.049 514.243 317.479 461.789 315.667 443.767C315.667 443.767 317.58 436.518 313.955 426.048C308.015 408.731 306.304 382.957 307.31 378.929C308.821 372.587 271.468 426.249 263.313 439.841C259.89 445.479 306.304 455.446 310.129 459.775C314.157 464.306 306.203 476.589 306.203 476.589C306.203 476.589 225.256 466.722 225.659 454.339C226.062 441.955 270.16 345.101 288.181 328.69Z" fill="black" stroke="#151515" stroke-width="1.03344"/>
<path d="M383.122 182.604C383.122 182.604 405.775 183.51 412.32 207.271C418.864 231.031 419.77 264.155 419.971 269.289C420.173 274.726 417.656 306.541 429.838 319.83C440.308 331.308 436.08 342.383 438.698 351.545L439.906 366.747C439.704 368.559 438.396 370.07 436.684 370.674C435.073 371.177 429.435 368.559 428.428 368.157C414.333 362.519 414.333 357.988 408.997 353.458C404.567 349.732 392.385 341.074 388.76 337.651C385.136 334.228 382.619 331.207 382.418 326.878C381.713 304.829 385.539 284.492 390.371 273.719C395.204 262.946 404.467 244.723 396.714 232.642C388.962 220.56 374.967 208.479 374.162 205.458C373.356 202.438 372.954 217.137 364.396 222.272C355.838 227.407 348.69 234.555 346.072 241.502C343.857 247.341 340.938 257.308 348.992 274.525C357.046 291.741 363.591 313.89 352.214 330.301C340.837 346.712 316.875 364.432 312.949 372.687C308.519 381.849 312.747 403.395 313.553 416.382C314.358 429.37 288.181 393.83 288.987 376.916C289.792 360.002 286.973 352.753 303.183 326.777C319.392 300.802 329.964 256.302 330.366 245.529C330.769 234.756 335.602 204.854 345.368 196.297C353.825 189.048 355.637 182 372.954 182C376.377 182 379.8 182.201 383.122 182.604Z" fill="black"/>
<path opacity="0.07" d="M434.771 542.635L320.399 543.239C320.399 543.239 333.79 553.71 340.233 554.918C346.677 556.126 374.263 569.818 384.532 564.583C391.781 560.656 434.771 542.635 434.771 542.635Z" fill="black"/>
<path opacity="0.07" d="M371.041 285.8C371.041 285.8 360.368 288.519 355.939 282.276C345.971 268.181 355.032 289.425 355.032 289.425C355.032 289.425 357.952 297.68 357.751 301.808C357.549 305.936 369.228 286.404 371.041 285.8Z" fill="black"/>
<path opacity="0.07" d="M413.729 358.29C415.038 359.901 416.951 361.21 417.957 365.338C419.669 371.983 421.481 379.433 426.113 386.279C428.831 390.306 427.321 405.912 422.79 415.778C421.481 418.597 417.454 425.947 417.555 427.658L417.857 441.955H405.574C405.574 441.955 395.103 443.062 397.318 434.404C399.231 426.752 409.198 398.26 402.453 392.018C389.767 380.44 405.775 357.283 399.835 349.833C394.7 343.39 387.351 338.758 387.351 336.644C387.351 335.839 389.264 338.456 390.573 339.362C393.09 341.175 394.398 342.584 396.513 343.994C398.828 345.504 402.352 348.021 404.668 349.732C407.99 352.249 411.011 355.068 413.729 358.29Z" fill="black"/>
<path d="M461.552 450.009C461.552 450.009 461.653 442.559 454.303 442.257C446.954 441.955 291.303 442.156 291.303 442.156C291.303 442.156 284.457 442.962 284.255 448.499C284.054 454.036 284.054 536.292 284.054 536.292C284.054 536.292 283.953 542.635 290.699 542.836C297.444 543.037 456.115 543.037 456.115 543.037C456.115 543.037 462.055 541.527 461.955 535.587C461.854 529.647 461.552 450.009 461.552 450.009Z" fill="#EDEDED" stroke="black" stroke-width="1.24066"/>
<circle r="6.74554" transform="matrix(-1 0 0 1 372.35 492.597)" fill="black"/>
<defs>
<linearGradient id="paint0_linear_108:2" x1="244.413" y1="493.835" x2="321.97" y2="439.395" gradientUnits="userSpaceOnUse">
<stop stop-color="#93DF93"/>
<stop offset="1" stop-color="#21C2C1"/>
</linearGradient>
<linearGradient id="paint1_linear_108:2" x1="216.198" y1="382.918" x2="303.401" y2="454.277" gradientUnits="userSpaceOnUse">
<stop stop-color="#93DF93"/>
<stop offset="1" stop-color="#21C2C1"/>
</linearGradient>
<linearGradient id="paint2_linear_108:2" x1="52.5671" y1="412.099" x2="113.732" y2="481.018" gradientUnits="userSpaceOnUse">
<stop stop-color="#93DF93"/>
<stop offset="1" stop-color="#21C2C1"/>
</linearGradient>
<linearGradient id="paint3_linear_108:2" x1="164.876" y1="437.454" x2="186.859" y2="310.442" gradientUnits="userSpaceOnUse">
<stop stop-color="#93DF93"/>
<stop offset="1" stop-color="#21C2C1"/>
</linearGradient>
<linearGradient id="paint4_linear_108:2" x1="180.659" y1="264.892" x2="249.59" y2="280.984" gradientUnits="userSpaceOnUse">
<stop stop-color="#93DF93"/>
<stop offset="1" stop-color="#21C2C1"/>
</linearGradient>
<linearGradient id="paint5_linear_108:2" x1="66.1016" y1="342.982" x2="164.865" y2="411.004" gradientUnits="userSpaceOnUse">
<stop stop-color="#93DF93"/>
<stop offset="1" stop-color="#21C2C1"/>
</linearGradient>
<linearGradient id="paint6_linear_108:2" x1="581.591" y1="247.814" x2="746.916" y2="335.341" gradientUnits="userSpaceOnUse">
<stop stop-color="#58CAEA"/>
<stop offset="1" stop-color="#4B45BD"/>
</linearGradient>
<linearGradient id="paint7_linear_108:2" x1="610.316" y1="28.7765" x2="765.62" y2="131.667" gradientUnits="userSpaceOnUse">
<stop stop-color="#E5A4ED"/>
<stop offset="1" stop-color="#7A5BF5"/>
</linearGradient>
<linearGradient id="paint8_linear_108:2" x1="658.987" y1="10.496" x2="708.422" y2="38.8904" gradientUnits="userSpaceOnUse">
<stop stop-color="#F19744"/>
<stop offset="1" stop-color="#F87C56"/>
</linearGradient>
<linearGradient id="paint9_linear_108:2" x1="837.135" y1="525.14" x2="845.927" y2="531.698" gradientUnits="userSpaceOnUse">
<stop stop-color="#E5A4ED"/>
<stop offset="1" stop-color="#7A5BF5"/>
</linearGradient>
<linearGradient id="paint10_linear_108:2" x1="876.184" y1="74.6467" x2="930.203" y2="98.1675" gradientUnits="userSpaceOnUse">
<stop stop-color="#F19744"/>
<stop offset="1" stop-color="#F87C56"/>
</linearGradient>
<linearGradient id="paint11_linear_108:2" x1="930.977" y1="382.238" x2="935.536" y2="385.639" gradientUnits="userSpaceOnUse">
<stop stop-color="#58CAEA"/>
<stop offset="1" stop-color="#4B45BD"/>
</linearGradient>
<linearGradient id="paint12_linear_108:2" x1="919.899" y1="382.238" x2="924.457" y2="385.639" gradientUnits="userSpaceOnUse">
<stop stop-color="#58CAEA"/>
<stop offset="1" stop-color="#4B45BD"/>
</linearGradient>
<linearGradient id="paint13_linear_108:2" x1="908.339" y1="382.238" x2="912.898" y2="385.639" gradientUnits="userSpaceOnUse">
<stop stop-color="#58CAEA"/>
<stop offset="1" stop-color="#4B45BD"/>
</linearGradient>
<linearGradient id="paint14_linear_108:2" x1="821.796" y1="429.316" x2="837.562" y2="475.582" gradientUnits="userSpaceOnUse">
<stop stop-color="#58CAEA"/>
<stop offset="1" stop-color="#4B45BD"/>
</linearGradient>
<linearGradient id="paint15_linear_108:2" x1="881.501" y1="472.143" x2="896.676" y2="494.074" gradientUnits="userSpaceOnUse">
<stop stop-color="#93DF93"/>
<stop offset="1" stop-color="#21C2C1"/>
</linearGradient>
<linearGradient id="paint16_linear_108:2" x1="831.891" y1="472.143" x2="847.066" y2="494.074" gradientUnits="userSpaceOnUse">
<stop stop-color="#93DF93"/>
<stop offset="1" stop-color="#21C2C1"/>
</linearGradient>
<linearGradient id="paint17_linear_108:2" x1="782.28" y1="472.143" x2="797.455" y2="494.074" gradientUnits="userSpaceOnUse">
<stop stop-color="#93DF93"/>
<stop offset="1" stop-color="#21C2C1"/>
</linearGradient>
<linearGradient id="paint18_linear_108:2" x1="868.621" y1="157.053" x2="982.062" y2="222.776" gradientUnits="userSpaceOnUse">
<stop stop-color="#93DF93"/>
<stop offset="1" stop-color="#21C2C1"/>
</linearGradient>
<linearGradient id="paint19_linear_108:2" x1="44.3761" y1="-13.6602" x2="-22.0346" y2="12.7352" gradientUnits="userSpaceOnUse">
<stop stop-color="#F19744"/>
<stop offset="1" stop-color="#F87C56"/>
</linearGradient>
<linearGradient id="paint20_linear_108:2" x1="335.52" y1="500.756" x2="378.845" y2="612.622" gradientUnits="userSpaceOnUse">
<stop stop-color="#E5A4ED"/>
<stop offset="1" stop-color="#7A5BF5"/>
</linearGradient>
</defs>
</svg>
